<svg width="137" height="50" viewBox="0 0 137 50" fill="none" xmlns="http://www.w3.org/2000/svg">
<path d="M2.82779 4.24242C7.27223 1.43098 12.4069 0.03367 18.2487 0.03367C22.4574 0.03367 25.7907 1.19529 28.2318 3.53535C30.6729 5.87542 31.9187 9.3771 31.9187 14.0404V35.0673H22.1039V32.2727C19.2588 34.1414 16.683 35.0673 14.3934 35.0673C9.71331 35.0673 6.21162 34.0741 3.87156 32.0875C1.53149 30.1178 0.369873 27.3737 0.369873 23.8721C0.369873 20.6061 1.48098 17.6768 3.68637 15.1178C5.89176 12.5253 9.46078 11.2458 14.3934 11.2458C16.6662 11.2458 19.2251 11.9529 22.1039 13.3502V12.3064C22.0534 9.73064 20.1847 8.33333 16.4978 8.09764C12.2891 8.09764 9.02307 8.80471 6.683 10.202L2.82779 4.24242ZM22.1039 24.5623V20.6061C21.1611 18.8047 18.9557 17.9125 15.4372 17.9125C11.2285 18.3838 9.00624 20.0168 8.78738 22.8114C9.02307 25.5892 11.2453 27.1044 15.4372 27.3401C18.9389 27.3401 21.1611 26.4141 22.1039 24.5623ZM57.0197 22.9461V0.03367H66.8345V32.2727C66.8345 37.1717 65.3194 41.2795 62.2722 44.5791C59.2419 47.8788 55.6224 49.6128 51.4136 49.798L49.3093 50C44.4103 49.8653 39.9658 47.9125 35.9928 44.1919L40.5551 38.9394C43.3497 41.0438 46.0096 42.2054 48.5012 42.4411C51.5315 42.4411 53.72 41.6835 55.0332 40.1684C56.3463 38.6532 57.0197 36.4815 57.0197 33.6869V31.9024C54.545 34.0236 51.683 35.0842 48.4338 35.0842C43.9894 35.0842 40.6056 33.7374 38.2655 31.0606C35.9254 28.367 34.7638 25.2862 34.7638 21.7677V0.03367H44.5786V19.3098C44.5786 21.6498 45.1679 23.4512 46.3295 24.7475C47.4911 26.0269 49.2588 26.7172 51.6157 26.7845C53.6695 26.633 55.4709 25.3535 57.0197 22.9461ZM79.2419 12.7946V35.0842H69.4271V1.04377L79.2419 0V3.18182C81.5988 1.07744 84.4103 0.03367 87.6426 0.03367C92.0871 0.03367 95.4709 1.38047 97.811 4.05724C100.151 6.73401 101.313 9.83165 101.313 13.3502V35.0842H91.4978V15.8081C91.4978 13.468 90.9086 11.6667 89.747 10.3704C88.5854 9.07407 86.8345 8.41751 84.4608 8.33333C82.4406 8.48485 80.6897 9.96633 79.2419 12.7946ZM102.323 17.5589C102.323 12.4242 103.956 8.21549 107.222 4.9495C110.488 1.6835 114.696 0.0505051 119.831 0.0505051C124.966 0.0505051 129.057 1.6835 132.087 4.9495C135.117 8.21549 136.649 12.4242 136.649 17.5589V21.0606H112.474C112.71 22.9293 113.518 24.3939 114.932 25.4377C116.329 26.4815 117.962 27.0202 119.831 27.0202C123.097 27.0202 126.026 26.0774 128.585 24.2256L134.191 29.8316C131.616 33.3333 126.835 35.0842 119.831 35.0842C114.696 35.0842 110.488 33.4512 107.222 30.1852C103.956 26.9192 102.306 22.6936 102.323 17.5589ZM124.747 9.6633C123.35 8.61953 121.717 8.08081 119.848 8.08081C117.979 8.08081 116.346 8.60269 114.949 9.6633C113.552 10.7071 112.845 12.1717 112.845 14.0404H126.868C126.851 12.1886 126.144 10.7239 124.747 9.6633Z" fill="black"/>
</svg>
