<svg width="241" height="50" viewBox="0 0 241 50" fill="none" xmlns="http://www.w3.org/2000/svg">
<g clip-path="url(#clip0_480_4758)">
<path d="M234.446 8.85178C226.606 0.505799 213.202 -2.02329 203.338 3.79361C201.062 5.31106 199.545 6.82851 198.28 8.85178C197.774 6.06978 195.751 3.5407 193.475 2.02325C192.21 1.26452 190.693 0.505799 189.176 0.505799C186.899 0.252891 184.623 1.51743 182.6 2.52907C181.082 3.28779 179.565 4.04652 178.048 4.29943L172.736 5.31106C165.402 6.06979 158.827 0.758708 158.827 0.758708C158.827 0.758708 156.297 -1.01165 156.045 4.29943C155.539 10.3692 161.861 11.3809 163.885 11.6338L164.39 14.9216C164.643 16.9448 164.896 18.7152 164.643 20.7385C164.138 24.0263 162.873 27.0612 160.85 29.8432C158.574 32.6252 155.286 34.6484 152.504 37.1775L148.71 39.7066C149.216 39.4537 149.722 37.6833 149.975 37.1775L151.492 34.3955L153.768 28.0728C155.792 21.4972 156.297 13.657 153.01 7.58724C150.986 3.79361 147.193 0.505799 142.64 0.758708C137.835 0.758708 132.271 1.77034 130.501 10.875C128.477 19.9797 127.719 30.349 123.672 35.1543L123.925 33.131L124.178 30.8548L124.684 25.5437C124.431 21.2443 123.672 16.9448 121.649 13.1512C119.879 9.86341 117.855 6.5756 115.326 4.04652C113.303 2.02325 110.015 -1.77026e-05 106.727 0.758708C104.957 1.26452 104.704 3.28779 104.704 5.05815L106.222 14.9216V19.221C106.222 19.9797 106.222 21.2443 105.463 21.7501C103.945 22.7617 104.198 19.4739 104.198 18.7152C104.198 16.1861 102.934 13.657 101.922 11.6338L100.405 9.35759C99.1401 7.08142 96.8639 4.04652 93.829 4.80524C89.2767 5.81688 92.8174 9.86341 93.829 10.6221C94.8407 11.6338 99.6459 14.9216 100.405 17.9565C101.163 20.9914 100.152 23.7734 100.152 24.785C100.152 25.7966 100.152 28.8315 104.451 28.8315C109.004 28.8315 113.05 22.7617 112.797 15.6803L113.556 16.9448C114.315 18.3358 114.997 19.7774 115.579 21.2443C116.085 23.2676 116.591 25.5437 116.591 27.567C116.591 29.3374 115.579 31.1077 114.062 31.8664C111.533 33.6368 107.992 35.6601 104.704 36.9246C98.6343 39.4537 92.0587 41.7299 94.5878 30.349C97.1168 18.9681 93.829 14.9216 91.047 11.128C88.0121 7.08142 77.39 -1.77026e-05 72.8376 0.758708C68.5382 1.26452 68.2853 2.27616 62.9742 7.08142C57.916 11.8867 53.1108 12.8983 50.0759 13.9099C47.041 14.9216 47.041 19.7268 53.3637 18.7152C59.6864 17.7036 60.698 14.9216 63.9858 10.875C67.5266 6.82851 70.8144 9.10469 70.8144 9.10469C72.8376 10.1163 73.8493 11.3809 73.0905 14.4158C72.3318 17.4507 66.5149 19.7268 62.4684 21.7501C60.4451 22.7617 57.1573 25.0379 54.3753 28.0728H54.1224V28.5786L52.3521 25.0379L52.0991 24.5321C49.0642 20.2327 42.2357 17.9565 35.913 17.1978C35.913 17.1978 38.4421 15.1745 41.2241 12.1396C43.7532 9.10469 45.2706 4.80524 39.9595 2.02325C36.1659 0.252891 31.1077 -1.77026e-05 26.8083 1.01162C22.003 2.02325 17.9565 4.55233 13.91 6.32269C10.6222 7.84014 -2.52908 14.1629 0.758728 18.9681C4.04654 23.7734 10.6222 20.9914 10.6222 20.9914C11.8867 23.7734 11.3809 27.0612 10.8751 29.8432C10.1163 32.8781 8.59889 35.6601 7.08144 38.4421C6.32271 40.2124 3.28781 42.9944 4.80526 45.0177C7.58726 48.3055 10.1163 48.0526 17.7036 48.8113C25.2908 49.57 35.4072 50.5817 45.2706 44.5119C46.5352 44.0061 47.5468 42.9944 48.5584 42.2357C50.0759 46.5351 55.387 49.3171 60.9509 49.57C68.2853 49.8229 76.3783 45.0177 80.9307 41.7299C81.9423 45.0177 85.9889 50.8346 93.5761 49.57C99.8988 48.5584 109.762 41.9828 114.82 38.1892L112.797 42.7415C111.027 45.5235 110.268 46.2822 111.027 47.041C112.038 48.0526 115.073 49.57 117.35 49.57C119.626 49.57 125.443 46.5351 128.983 40.9711C132.777 35.4072 136.318 30.349 137.835 24.0263C139.353 17.7036 138.847 17.9565 139.858 17.9565C140.87 17.9565 141.629 20.9914 141.882 22.003C142.135 23.0147 143.905 30.8548 140.111 39.2008C138.847 41.477 137.582 44.0061 137.076 46.2822C136.823 47.5468 137.582 48.0526 138.594 48.3055L141.629 49.57C143.399 49.8229 145.675 48.0526 147.193 47.2939L151.998 44.5119C150.733 46.788 150.986 48.8113 153.515 49.3171C157.815 50.3288 159.332 45.7764 159.838 44.5119L161.861 44.0061C164.643 44.0061 167.678 45.0177 169.954 46.0293L174.507 48.3055C176.277 49.0642 178.553 49.8229 180.577 49.3171C182.094 49.0642 183.359 48.3055 184.623 47.5468C188.493 45.0683 191.705 41.6793 193.981 37.6833C195.498 35.913 196.51 34.1426 197.269 32.3723V36.1659L197.521 37.1775V38.9479L197.774 39.7066V39.9595C198.533 42.2357 199.292 44.259 201.062 45.7764C204.856 49.0642 211.684 50.0759 216.49 49.3171H216.743C220.789 48.5584 223.318 44.5119 225.847 41.477L234.193 32.3723C236.722 29.8432 238.998 26.8083 240.01 23.5205C241.78 17.7036 237.987 12.6454 234.446 8.85178ZM47.7997 31.6135C46.0293 32.6252 40.2124 35.4072 32.6252 36.1659C25.2908 36.9246 21.2443 37.4304 18.7152 38.9479C15.9332 40.4653 13.91 43.2473 14.4158 40.9711C14.9216 38.695 17.4507 32.8781 16.692 29.8432L13.91 20.2327C13.91 20.2327 19.9798 14.1629 21.7501 10.875C23.5205 7.58723 26.8083 3.79361 32.3723 3.5407C36.1659 3.28779 34.9014 6.32269 33.8897 7.84014C32.6252 10.1163 30.6019 12.1396 28.5787 13.9099C26.3025 15.6803 23.2676 17.7036 22.5089 19.9797C21.7501 22.003 22.5089 22.7617 23.7734 24.2792C25.2908 25.7966 25.5438 27.3141 31.1077 26.0496C36.9246 25.0379 41.7299 24.785 47.2939 27.0612C52.8579 29.0845 49.5701 30.6019 47.7997 31.6135ZM88.265 30.0961H85.9889L81.9423 30.6019C79.6662 30.8548 77.1371 31.6135 75.1138 32.8781C72.8376 34.1426 70.8144 35.6601 68.2853 36.6717C67.0207 37.4304 65.5033 37.9362 63.7329 37.6833C62.7213 37.6833 61.4568 37.1775 60.9509 36.1659C60.4451 34.6484 61.7097 32.6252 62.7213 31.3606C64.4917 28.8315 66.7678 26.8083 69.2969 24.785C71.826 23.0147 74.3551 21.4972 76.1254 18.9681L77.39 16.9448C78.1487 14.9216 77.8958 12.6454 76.8842 10.6221C76.3783 9.86341 75.6196 8.85178 74.3551 8.09305L71.826 7.08142C71.826 7.08142 76.6313 6.32269 82.4482 13.1512C84.9772 16.1861 84.4714 20.7385 83.9656 22.7617C83.7127 25.0379 82.4482 27.567 86.2418 28.5786C87.7592 28.8315 88.265 28.3257 89.0238 28.3257C89.5296 28.5786 89.5296 29.5903 88.265 30.0961ZM163.632 40.9711L161.356 40.7182C163.885 37.4304 166.667 33.6368 168.184 29.5903C169.954 25.0379 169.196 20.7385 168.437 15.9332L167.931 11.3809L170.207 10.875C171.472 10.6221 172.989 9.86341 174.254 9.10469C176.024 8.34596 177.542 7.58724 179.818 8.34596C181.082 9.10469 182.347 10.1163 183.359 11.3809C185.129 14.6687 185.129 18.4623 184.623 22.2559C183.713 27.39 181.639 32.2205 178.553 36.4188C177.036 38.4421 174.76 40.4653 172.231 41.2241H167.931L163.632 40.9711ZM219.272 31.6135C217.501 34.3955 214.719 37.6833 214.213 40.9711C213.961 44.0061 214.466 44.5119 214.466 45.2706C214.466 46.0293 211.937 46.0293 210.42 44.7648C208.902 43.2473 206.879 41.7299 208.649 31.8664C209.408 27.8199 210.673 23.2676 209.661 18.9681C208.649 15.4274 205.867 11.3809 201.821 12.6454C201.315 12.6454 200.051 12.6454 201.315 10.875C201.821 9.6105 202.833 8.85178 203.844 8.09305C207.891 5.05815 213.708 5.31106 217.754 9.6105C220.536 12.6454 223.571 16.1861 223.824 20.4856C223.824 24.5321 221.548 28.3257 219.272 31.6135Z" fill="black"/>
</g>
<defs>
<clipPath id="clip0_480_4758">
<rect width="240.769" height="50" fill="white"/>
</clipPath>
</defs>
</svg>
