<svg width="194" height="50" viewBox="0 0 194 50" fill="none" xmlns="http://www.w3.org/2000/svg">
<path d="M105.27 41.89C105.295 39.5091 105.717 36.9545 107.13 34.6976C108.321 32.8126 110.131 31.7462 112.363 31.5478C112.934 31.4982 113.504 31.4982 114.075 31.5478C115.736 31.6966 116.952 30.8285 117.993 29.7373C118.985 28.7204 118.812 27.3067 117.621 26.513C115.712 25.2234 113.727 24.0329 111.867 22.6936C110.478 21.7015 109.015 20.6599 107.874 19.395C105.692 16.9644 104.948 14.1371 106.585 11.0617C107.527 9.27595 108.445 7.44063 109.586 5.77892C110.478 4.48924 111.57 3.27396 112.81 2.3315C116.803 -0.793497 121.143 -0.644688 125.483 1.98428C127.517 3.22436 128.088 5.3573 128.336 7.53984C128.484 8.85432 128.559 10.2928 128.162 11.5081C127.021 15.0051 124.64 15.8732 121.168 15.6004C119.953 15.5011 118.737 15.2779 117.522 15.1787C117.2 15.1539 116.803 15.2531 116.505 15.4515C115.984 15.7492 115.885 16.2204 116.456 16.5676C116.952 16.89 117.497 17.138 118.068 17.3613C121.342 18.7005 124.169 20.7343 126.699 23.1896C128.311 24.7769 128.807 26.8107 129.08 28.9436C130.047 36.3097 126.748 41.9644 121.54 46.6271C119.184 48.7353 116.208 49.9506 112.934 50.0002C108.222 50.0498 105.121 46.8503 105.27 41.89ZM144.779 28.2244C144.779 27.6787 144.779 27.1083 144.779 26.5627C144.68 21.7759 144.481 16.9892 144.531 12.2273C144.556 10.5904 145.151 8.97833 145.548 7.36622C145.672 6.87019 145.97 6.42376 146.664 6.42376C147.458 6.42376 148.177 6.52297 148.45 7.29182C148.896 8.5319 149.318 9.77198 149.541 11.0617C150.161 14.8563 149.814 18.7006 149.69 22.52C149.591 25.3226 149.367 28.1252 149.219 30.9277C149.119 32.7382 148.871 34.4992 147.904 36.0617C147.656 36.4337 147.433 36.8305 147.135 37.1529C146.143 38.269 144.903 38.269 144.209 36.9545C143.266 35.144 142.497 33.2095 141.803 31.2998C141.183 29.5636 140.811 27.7531 140.24 25.9922C139.943 25.0994 139.496 24.2809 139.099 23.4128C139 23.4128 138.901 23.4128 138.827 23.4128C138.703 23.7105 138.529 24.0081 138.455 24.3305C137.859 27.1827 138.033 30.0597 138.256 32.9119C138.479 35.8384 137.884 38.4178 135.875 40.6252C134.685 41.9396 133.767 41.89 132.899 40.3027C131.882 38.4426 131.312 36.4089 131.237 34.3255C130.989 27.5547 132.205 21.0071 134.486 14.6827C134.982 13.269 135.801 11.9297 136.669 10.6896C137.512 9.47436 138.207 9.54876 138.975 10.8136C140.885 13.9634 142.051 17.4109 142.944 20.9327C143.489 23.0656 143.911 25.2234 144.382 27.3811C144.457 27.6787 144.556 27.9763 144.63 28.274C144.68 28.2492 144.729 28.2244 144.779 28.2244ZM168.415 34.648C168.217 36.4833 168.068 37.8722 167.869 39.2363C167.82 39.5091 167.696 39.8067 167.547 40.0547C166.952 40.9476 166.084 41.0468 165.538 40.1539C164.744 38.8394 164.099 37.4257 163.504 35.9873C163.207 35.268 162.884 34.8712 162.066 35.0448C160.776 35.3424 159.437 35.5656 158.172 35.9376C157.13 36.2601 156.609 37.0289 156.609 38.1946C156.609 39.2859 156.014 39.9059 154.923 40.2035C153.881 40.4763 153.013 40.2531 152.592 39.2115C151.971 37.649 151.426 36.0121 151.178 34.3503C150.855 32.2918 150.682 30.1837 150.781 28.1003C151.178 20.8831 153.435 14.2611 157.577 8.30869C157.601 8.28388 157.626 8.25908 157.626 8.23428C159.139 6.27496 160.206 6.22535 161.867 8.08547C164.571 11.1113 166.282 14.6083 166.753 18.6509C167.398 24.1321 167.894 29.5884 168.415 34.648ZM157.031 20.8583C157.13 21.6271 157.13 22.4208 157.353 23.1648C157.477 23.6113 157.874 24.2065 158.271 24.3305C158.966 24.5289 159.759 24.5289 160.478 24.4297C161.917 24.2561 162.562 23.4625 162.587 22.024C162.636 20.015 162.091 18.1301 161.297 16.2948C160.751 15.0299 159.933 14.8811 158.941 15.8732C157.552 17.2621 157.031 18.9486 157.031 20.8583ZM175.533 27.9515C175.26 29.1668 175.012 30.3821 174.69 31.5726C174.367 32.6886 173.971 33.7799 173.574 34.8712C173.276 35.6648 172.532 35.8136 171.887 35.7392C171.565 35.6896 171.168 35.0696 171.019 34.648C170.052 31.9198 170.374 29.1916 171.168 26.4634C171.664 24.7769 172.11 23.0904 172.458 21.3543C172.557 20.8583 172.358 20.2382 172.16 19.7422C171.317 17.8325 170.325 15.9972 169.506 14.0627C168.861 12.5498 168.638 10.9625 169.035 9.32555C169.258 8.38309 169.928 8.11027 170.697 8.73031C171.342 9.25115 171.838 9.94559 172.383 10.5656C172.631 10.8384 172.78 11.1609 173.028 11.4337C173.574 12.0289 173.995 11.9793 174.243 11.2105C174.69 9.84638 175.087 8.4823 175.533 7.11821C175.731 6.54777 175.955 6.00214 176.252 5.4813C177.319 3.64599 179.104 3.42277 180.617 4.93567C181.709 6.00214 182.155 7.39103 182.477 8.85432C182.899 10.7392 183.221 12.5994 182.849 14.5339C182.477 16.4188 181.386 17.7581 179.724 18.6757C178.435 19.395 178.311 19.8662 179.08 21.1807C180.295 23.2888 181.659 25.3722 182.676 27.5795C183.618 29.6132 183.842 31.8454 183.345 34.0527C183.122 35.0448 182.75 36.0865 181.56 36.3097C180.419 36.5329 179.551 35.8384 179.03 34.9208C178.236 33.5319 177.641 32.0438 176.996 30.5805C176.624 29.7373 176.351 28.8196 176.029 27.9515C175.855 27.9267 175.707 27.9267 175.533 27.9515ZM13.2066 34.524C13.5786 33.1351 14.0499 31.7462 14.2731 30.3325C14.8931 26.6867 14.6699 23.016 14.3475 19.3454C14.0747 16.2204 13.7027 13.0954 13.6531 9.97039C13.6531 8.33349 14.1243 6.67178 14.6451 5.10928C15.1659 3.52198 16.6788 3.17476 17.9189 4.26603C18.6878 4.93567 19.407 5.82853 19.7046 6.77099C20.4487 9.02793 21.1431 11.3345 21.5152 13.6658C22.4576 19.5686 22.656 25.5706 22.4328 31.5478C22.2344 36.3345 21.0935 40.898 17.7701 44.6182C16.5548 45.9823 15.2156 47.1976 13.3802 47.7432C10.8753 48.5121 8.71754 47.892 6.83262 46.2303C4.89809 44.5438 3.78202 42.2869 2.71555 40.0051C0.433806 35.02 0.210592 29.8613 1.22746 24.5785C1.69869 22.1976 3.13718 20.4863 5.64214 19.9158C7.00623 19.6182 7.65107 19.767 8.2215 21.0319C9.06476 22.7928 9.80881 24.6281 10.3792 26.513C11.0489 28.646 11.4705 30.8533 12.0409 33.0111C12.1898 33.5567 12.4626 34.0527 12.6858 34.5984C12.8842 34.5488 13.0578 34.524 13.2066 34.524ZM55.915 27.4803C55.915 26.6123 55.915 25.769 55.915 24.9009C55.8654 20.2878 55.7413 15.6996 55.8405 11.0865C55.8654 9.59837 56.4358 8.13507 56.8326 6.67178C56.9814 6.10134 57.3534 5.65491 58.1223 5.65491C58.9159 5.65491 59.6104 5.85333 59.8584 6.64698C60.28 7.98626 60.7265 9.32555 60.9001 10.6896C61.4209 15.0547 61.0737 19.4198 60.7761 23.7601C60.5777 26.7859 60.4288 29.8613 59.9576 32.8623C59.7592 34.1023 58.9655 35.3424 58.1719 36.4089C57.3038 37.5994 55.9894 37.525 55.3445 36.2105C54.3277 34.1519 53.5092 32.019 52.7652 29.8613C52.1699 28.1748 51.7979 26.4138 51.2523 24.7025C51.0042 23.9585 50.5826 23.264 50.2354 22.5696C50.1362 22.5696 50.0618 22.5944 49.9626 22.5944C49.8386 22.9416 49.6154 23.264 49.5906 23.6113C49.4417 25.1738 49.2681 26.7611 49.2433 28.3236C49.1937 30.6301 49.3425 32.9367 49.2185 35.2184C49.0945 37.2521 47.8296 38.8146 46.4159 40.2035C45.6471 40.9724 44.7542 40.898 44.283 39.8811C43.5638 38.3434 42.8197 36.7065 42.5469 35.0448C41.8277 30.5557 42.5469 26.1162 43.4894 21.7263C44.159 18.5517 44.779 15.3523 46.3167 12.4257C46.8376 11.4585 47.408 10.4912 48.1025 9.64797C48.8961 8.68071 49.5657 8.70551 50.1114 9.79678C51.3019 12.2769 52.5171 14.7571 53.3356 17.3613C54.3525 20.6103 54.9477 23.9585 55.7165 27.2571C55.7413 27.3315 55.7661 27.4059 55.7909 27.5051C55.8158 27.4555 55.8654 27.4803 55.915 27.4803ZM70.3743 18.1053C71.3911 16.9396 72.408 15.774 73.4745 14.6331C74.1937 13.8642 74.913 13.1202 75.7066 12.4506C77.1451 11.2105 78.8068 11.6569 79.3773 13.4674C80.2453 16.27 80.0221 19.0726 79.03 21.8007C78.4348 23.388 77.1451 24.3553 75.6074 25.0498C75.1362 25.273 74.7146 25.6202 74.1441 26.017C74.5161 26.2154 74.6402 26.3146 74.7642 26.3394C76.1282 26.6123 76.8227 27.5547 77.2443 28.7948C77.7403 30.2581 77.7156 31.7462 77.4179 33.2343C77.0707 34.9456 76.5995 36.6569 76.0786 38.3186C75.8802 38.9386 75.4586 39.5587 74.9874 40.0547C74.1193 41.022 73.0033 40.9972 72.3832 39.8811C71.1927 37.7234 70.1511 35.4664 69.0598 33.2343C68.8366 32.7631 68.6382 32.267 68.4398 31.7958C68.3653 31.7958 68.2909 31.7958 68.1917 31.7958C68.0925 32.0934 67.9437 32.4158 67.8693 32.7382C67.4973 34.7472 67.2245 36.8057 66.7781 38.7898C66.5796 39.6083 66.1332 40.4267 65.6124 41.0716C64.7195 42.1877 63.4546 41.9644 62.9834 40.6252C62.6858 39.7819 62.4378 38.889 62.4626 38.021C62.5618 33.8791 62.7106 29.7125 62.9338 25.5706C63.0578 23.0408 63.281 20.5111 63.529 17.9813C63.8019 15.4763 64.3723 13.021 65.7364 10.8632C66.2324 10.0696 66.9021 9.35035 67.6213 8.73031C68.7622 7.73825 69.779 8.08547 70.1511 9.54876C70.7215 11.6817 70.6967 13.8642 70.2999 16.0468C70.1759 16.6916 70.1511 17.3613 70.0767 18.0309C70.2007 18.0309 70.2751 18.0557 70.3743 18.1053ZM34.6104 15.0795C34.6848 14.3851 35.0072 13.6906 35.3544 13.0706C35.7761 12.3017 36.4705 11.9793 37.3634 12.0041C38.2066 12.0289 38.5538 12.5994 38.7275 13.2194C39.3971 15.6004 40.0667 17.9813 40.5628 20.3871C41.654 25.521 40.8108 30.5061 38.8763 35.2928C37.8842 37.7234 36.3217 39.9059 34.288 41.642C32.6015 43.1053 30.6421 43.0557 29.2533 41.2948C28.2612 40.0547 27.4427 38.5914 26.8971 37.1281C25.161 32.4902 24.1193 27.6787 24.3425 22.6936C24.5658 17.9069 26.0786 13.517 28.5588 9.44956C28.7572 9.10234 29.3773 8.87912 29.7989 8.85432C30.0469 8.85432 30.5181 9.37515 30.5181 9.67277C30.5429 10.8136 30.6669 12.0289 30.3445 13.0954C29.3029 16.7412 28.7324 20.4367 28.906 24.2313C29.03 26.8603 29.5013 29.4148 31.0886 31.5974C31.4606 32.1182 32.0806 32.4406 32.5767 32.8623C32.8495 32.2918 33.2959 31.7462 33.3703 31.1509C33.6431 28.9684 33.8167 26.7611 34.0152 24.5785C34.164 23.7849 34.2384 18.2045 34.6104 15.0795ZM88.3306 20.3871C88.529 20.0398 88.7523 19.6926 88.9507 19.3454C89.9923 17.6589 91.0092 15.898 92.1501 14.2611C92.9933 13.0458 94.3822 12.7234 95.7959 12.7234C96.54 12.7234 96.7136 13.393 96.7632 13.9386C96.8376 15.0299 96.912 16.1708 96.7384 17.2373C96.0191 21.4039 94.2582 25.0746 91.2572 28.1003C91.034 28.3236 90.8356 28.5964 90.662 28.894C89.0251 31.8702 87.3138 34.8216 85.7761 37.8722C85.032 39.3851 84.6352 41.0716 84.04 42.6589C83.6679 43.6013 83.2711 44.5438 82.7999 45.4367C82.4527 46.1063 81.907 46.6023 81.0638 46.3295C80.2701 46.1063 80.2205 45.4119 80.1709 44.7422C80.0221 41.9644 80.7661 39.3603 81.7086 36.8057C82.2294 35.4168 82.7007 33.9783 83.3207 32.639C83.7671 31.6718 83.7671 30.7789 83.5191 29.7869C82.7999 27.0091 82.0558 24.2313 82.3534 21.3295C82.6263 18.5021 82.9239 15.6748 84.3376 13.1202C84.66 12.525 85.032 11.9297 85.4784 11.4089C86.1233 10.6648 86.6937 10.7392 86.9913 11.6321C87.4378 12.897 87.785 14.1867 87.9586 15.5011C88.1074 16.7908 87.9834 18.1301 87.9834 19.4446C87.9834 19.7174 88.033 20.015 88.0578 20.2879C88.157 20.3375 88.2562 20.3623 88.3306 20.3871ZM102.79 22.148C103.534 22.1976 104.303 22.148 105.022 22.3216C107.502 22.9416 108.445 24.8513 107.701 27.5547C107.056 29.9357 103.807 33.0855 100.806 33.2343C100.186 33.2591 99.4665 33.0855 98.9457 32.7878C96.1927 31.1509 95.2503 27.7035 96.0935 24.9753C96.3167 24.2313 97.1848 23.5617 97.9288 23.14C99.3921 22.272 101.103 22.1976 102.79 22.148ZM191.232 12.5994C191.232 12.9218 191.282 13.2938 191.208 13.6162C191.133 13.9634 190.935 14.2859 190.786 14.6083C190.538 14.3355 190.191 14.0875 190.017 13.765C189.794 13.3186 189.72 12.8226 189.571 12.3513C188.083 12.5498 187.562 12.0785 187.959 10.64C188.256 9.49916 188.083 8.5815 187.487 7.61424C187.239 7.19261 187.115 6.67178 187.016 6.20055C186.967 5.95253 187.091 5.53091 187.264 5.4317C187.463 5.33249 187.81 5.4813 188.083 5.55571C188.306 5.63011 188.479 5.80372 188.802 6.00214C188.876 5.50611 188.876 5.08448 189 4.73726C189.099 4.43964 189.372 4.19162 189.571 3.9188C189.819 4.09242 190.166 4.24122 190.265 4.46444C190.563 5.18368 190.935 5.23329 191.555 4.86126C192.1 4.53884 192.82 4.48924 193.167 5.05968C193.514 5.58051 193.886 6.37416 193.713 6.87019C193.465 7.66384 192.82 8.35829 192.224 8.97833C191.877 9.32555 191.654 9.54876 191.976 9.99519C192.076 10.144 192.15 10.3176 192.224 10.4664C192.745 11.6817 192.522 12.2025 191.232 12.5994Z" fill="black"/>
</svg>
