<svg width="215" height="50" viewBox="0 0 215 50" fill="none" xmlns="http://www.w3.org/2000/svg">
<path d="M212.311 1.0476C212.642 0.560559 213.203 0.321632 213.681 0C213.975 0.238927 214.232 0.523801 214.37 0.89138V1.20382C214.085 2.26061 213.414 3.15199 213.056 4.18122C212.247 6.34075 211.696 8.58298 211.071 10.7976C210.584 12.4977 210.262 14.2345 209.895 15.953C209.518 17.8 209.141 19.6471 208.774 21.4942C208.461 23.277 208.397 25.0965 208.286 26.8976C208.231 28.3036 208.048 29.7004 207.662 31.0513C208.856 31.3729 209.95 32.0162 210.786 32.9351C210.225 33.6703 209.674 34.4146 209.104 35.1314C208.544 35.692 207.772 36.0596 207.377 36.7671C207.257 37.3553 207.303 37.9618 207.312 38.5591C207.368 39.5699 207.478 40.5808 207.671 41.5732C207.836 42.4095 208.195 43.209 208.185 44.0728C208.213 44.3117 208.011 44.4587 207.864 44.615C207.239 45.1847 206.504 45.635 205.741 45.9934C204.923 46.3793 204.114 46.7745 203.297 47.1421C202.957 46.2599 202.598 45.3685 202.433 44.4312C202.24 42.336 202.359 40.2316 202.396 38.1272C201.808 37.7872 201.183 37.5023 200.512 37.4012C199.391 37.199 198.252 37.392 197.167 37.6585C197.82 38.651 198.389 39.6986 198.794 40.8105C199.492 42.6668 199.777 44.6701 199.786 46.6458C199.189 47.0134 198.628 47.4453 198.206 47.9967C197.93 48.3367 197.746 48.787 197.323 48.9616C196.754 49.2465 196.257 49.6876 195.623 49.853C195.256 49.9632 194.879 49.9816 194.502 50C194.438 49.0443 194.254 48.107 194.052 47.1696C193.225 43.7512 191.442 40.6359 189.264 37.8974C188.263 38.2742 187.178 38.3753 186.112 38.3937C186.774 37.6677 187.325 36.7763 187.399 35.7655C187.555 34.1941 186.829 32.6686 185.827 31.5016C184.633 30.1691 183.411 28.8642 182.216 27.5317C181.545 30.6837 181.361 33.946 181.637 37.1531C181.72 38.0353 181.812 38.9267 181.931 39.8089C182.014 40.4521 182.188 41.0862 182.152 41.7387C182.124 42.3268 182.381 42.869 182.593 43.4111C182.74 43.7236 182.528 44.0452 182.418 44.3393C182.078 45.0561 181.747 45.782 181.279 46.4161C180.847 46.6918 180.314 46.7194 179.827 46.8664C178.457 47.188 177.015 47.3442 175.636 47.0134C174.359 46.7102 173.256 45.8372 172.64 44.6885C171.694 42.9517 171.547 40.9208 171.547 38.9818C171.648 34.819 172.613 30.7388 173.661 26.7322C171.317 26.962 169.038 27.6236 166.695 27.9085C164.563 28.2577 162.44 28.708 160.327 29.1674C159.417 29.4247 158.535 29.7556 157.625 30.0221C158.581 32.9351 159.674 35.8206 161.209 38.4764C161.76 39.4045 162.468 40.25 162.982 41.2057C163.874 42.8322 164.765 44.4679 165.656 46.0945C163.037 47.4821 160.143 48.2448 157.248 48.787C155.815 47.5648 154.73 45.975 153.876 44.3025C153.076 42.676 152.313 41.0311 151.541 39.3861C150.981 38.3294 150.365 37.2909 149.841 36.2158C149.207 34.7914 148.748 33.2384 147.719 32.0346C147.085 32.2 146.45 32.3838 145.798 32.4848C144.888 32.6411 143.96 32.6227 143.05 32.5584C143.17 33.6795 143.308 34.8098 143.464 35.9309C143.583 36.9509 144.098 37.9158 144.015 38.9634C143.923 40.3694 144.484 41.7111 144.493 43.1079C144.493 43.9993 144.511 44.8906 144.447 45.7912C142.692 47.528 140.385 48.5848 138.024 49.2005C137.399 48.2724 136.976 47.2248 136.756 46.1312C136.682 45.7361 136.654 45.3317 136.489 44.9642C136.268 44.4955 136.333 43.9717 136.305 43.4663C136.232 41.8489 136.158 40.2224 136.02 38.605C135.947 37.9342 136.002 37.2358 135.754 36.6017C135.552 36.0687 135.662 35.4898 135.644 34.9292C135.671 33.8725 135.405 32.8432 135.359 31.7956C135.267 29.9485 135.8 28.0371 135.212 26.236C135.497 25.7122 135.524 25.1057 135.46 24.5176C137.04 23.3597 138.63 22.2018 140.211 21.0439C140.661 21.2369 141.111 21.4575 141.479 21.7883C141.672 21.9445 141.681 22.2018 141.736 22.4315C141.892 23.3413 142.122 24.2602 142.076 25.1884C142.058 25.5652 142.113 25.9327 142.232 26.2911C142.435 26.9252 142.232 27.6052 142.38 28.2485C142.462 28.5977 142.554 28.9469 142.637 29.3053C143.684 28.4231 144.925 27.7798 146.175 27.2193C145.421 24.297 144.815 21.338 144.181 18.3882C143.648 16.6973 143.161 14.9421 143.188 13.1502C143.188 11.8269 143.188 10.5128 143.188 9.19868C145.752 8.15108 148.141 6.68995 150.31 4.97151C150.485 4.82448 150.705 4.74178 150.935 4.7234C151.578 4.64069 152.231 4.57636 152.883 4.50285C152.736 6.22128 152.58 7.93972 152.617 9.66734C152.672 13.6188 153.646 17.4968 154.987 21.191C157.349 19.4082 159.591 17.4876 161.861 15.5946C163.056 14.5837 164.342 13.6831 165.464 12.5804C166.814 11.349 167.981 9.94303 169.36 8.75758C169.838 8.37162 170.288 7.94891 170.839 7.67322C171.786 7.59052 172.742 7.66403 173.697 7.63646C173.789 8.06837 173.89 8.50947 173.991 8.94137C172.429 10.4209 170.876 11.9188 169.314 13.4075C168.919 13.8118 168.468 14.161 168.009 14.4918C167.237 15.034 166.759 15.8702 166.042 16.4676C163.938 18.2595 161.834 20.0423 159.729 21.825C159.27 22.2202 158.783 22.5878 158.397 23.0564C157.809 23.764 157.221 24.4808 156.642 25.1976C158.847 24.8116 161.034 24.3613 163.23 23.9478C165.298 23.5067 167.402 23.1851 169.443 22.6245C172.19 22.1926 174.947 21.7975 177.695 21.3839C178.981 19.9044 179.928 18.1584 180.617 16.3205C181.885 16.4124 183.162 16.3113 184.421 16.1C185.69 15.9438 186.921 15.6129 188.198 15.4935C188.685 15.4475 189.154 15.3005 189.613 15.1259C192.683 13.9772 195.917 13.3156 198.895 11.9188C204.188 9.55707 208.801 5.70667 212.311 1.0476ZM199.134 15.8059C195.669 17.5795 191.92 18.7649 188.097 19.4633C187.877 19.5001 187.665 19.5644 187.482 19.6931C186.967 20.0423 186.443 20.3731 185.928 20.7223C187.004 22.3672 188.548 23.617 189.696 25.1976C190.294 25.9787 190.863 26.7874 191.433 27.596C192.352 28.9193 193.28 30.2334 194.08 31.6302C194.842 31.7037 195.614 31.7497 196.377 31.6762C197.167 31.6302 197.948 31.4832 198.748 31.4372C199.97 31.3178 201.201 31.428 202.424 31.3637C202.699 31.1983 202.938 30.9502 203.03 30.6378C203.352 29.7372 203.462 28.7723 203.48 27.8258C203.471 27.6328 203.572 27.4582 203.646 27.2836C203.784 26.962 203.802 26.6128 203.876 26.2819C204.032 25.5376 204.16 24.7932 204.335 24.0581C204.5 23.3964 204.537 22.7164 204.657 22.0548C204.776 21.145 205.208 20.3088 205.3 19.3898C205.346 18.7006 205.539 18.039 205.686 17.3681C205.916 16.5135 206.127 15.6497 206.366 14.7951C206.715 13.7015 207.184 12.6447 207.432 11.5236C207.561 10.9631 207.533 10.3841 207.386 9.83275C204.978 12.222 202.176 14.2437 199.134 15.8059ZM80.1207 1.72762C80.6353 1.54383 80.9386 1.05679 81.3797 0.762727C82.0413 0.634075 82.6386 0.964896 83.2451 1.16706C83.5943 2.60981 83.6954 4.09851 83.7138 5.57802C83.7322 6.0283 83.7046 6.47859 83.8333 6.91049C83.916 7.19537 83.9435 7.48943 83.9343 7.7835C83.9252 9.16192 83.9435 10.5403 83.9252 11.9188C83.8608 12.5804 83.6862 13.2237 83.7322 13.8945C82.0137 15.7232 79.8267 17.0373 77.5017 17.9471C76.693 16.0265 76.3163 13.9037 76.6011 11.8361C76.6838 11.1009 76.8493 10.3749 76.7941 9.63058C76.7114 8.03161 76.6471 6.42345 76.6011 4.82448C77.6763 4.20879 78.632 3.38173 79.4131 2.41684C79.6337 2.15953 79.7899 1.8379 80.1207 1.72762ZM136.416 1.81952C136.985 1.60816 137.39 1.1395 137.831 0.753538C138.492 0.661643 139.099 0.955707 139.705 1.15788C140.146 2.77523 140.165 4.46609 140.192 6.12939C140.174 6.66238 140.45 7.15861 140.441 7.6916C140.431 8.73001 140.441 9.77761 140.441 10.816C140.431 11.3674 140.477 11.928 140.349 12.4701C140.238 12.9296 140.202 13.4075 140.22 13.8761C139.044 15.1627 137.61 16.1827 136.076 16.9914C135.883 17.0557 135.883 17.2762 135.846 17.4325C135.469 19.3714 135.065 21.3012 134.605 23.2218C134.072 25.4089 133.502 27.5868 132.685 29.682C132.299 30.5826 131.913 31.5291 131.214 32.2459C130.617 32.8157 130.029 33.3946 129.413 33.9368C128.889 34.4054 128.182 34.6076 127.511 34.7271C126.702 34.819 125.875 34.7914 125.067 34.6444C125.168 32.6135 125.848 30.6745 126.371 28.7263C127.355 25.2619 128.32 21.7883 129.312 18.3238C127.777 19.0039 126.178 19.5093 124.616 20.1066C122.53 20.8601 120.463 21.6504 118.367 22.3856C119.02 24.3705 119.663 26.3463 120.297 28.3312C120.527 29.002 120.61 29.7096 120.867 30.3621C121.244 31.2902 121.758 32.1632 122.062 33.1189C122.356 34.6995 123.146 36.1423 123.982 37.5023C124.644 38.5683 125.287 39.6435 125.866 40.7462C126.151 41.3159 126.482 41.8857 126.62 42.5106C126.665 43.016 126.629 43.5306 126.638 44.0452C125.517 45.4236 124.166 46.5999 122.732 47.6475C122.126 48.0702 121.538 48.5205 120.894 48.8881C120.371 48.9432 119.838 48.8973 119.314 48.9065C118.661 47.2983 117.706 45.828 116.585 44.5139C116.125 43.9901 115.932 43.3101 115.647 42.6944C114.857 40.8289 114.057 38.9634 113.322 37.0796C112.413 34.2492 111.457 31.428 110.777 28.5334C110.51 26.9344 110.189 25.3446 109.748 23.7824C109.702 23.6537 109.674 23.47 109.509 23.4608C106.008 22.744 102.414 22.744 98.904 22.1283C98.7754 22.4132 98.417 22.7072 98.6008 23.038C100.135 26.8609 101.799 30.6286 103.462 34.3963C103.499 34.5157 103.572 34.6444 103.526 34.773C103.278 36.0596 102.626 37.2634 101.67 38.1548C100.577 39.184 99.1705 39.8181 97.7278 40.204C95.9358 37.5666 94.199 34.8373 93.2157 31.7772C92.5909 30.0037 91.8649 28.2577 91.1389 26.5209C90.9827 26.1441 90.753 25.8041 90.5324 25.4549C89.5399 23.8743 88.5475 22.2937 87.555 20.7131C86.4247 18.9395 85.616 16.973 85.0922 14.9421C85.0279 14.8135 85.1657 14.7216 85.2484 14.648C87.2426 13.0675 89.2367 11.496 91.2216 9.91546C93.7763 10.5679 95.9818 12.075 98.4629 12.9388C101.367 14.0048 104.289 15.0156 107.276 15.8151C108.057 15.9897 108.865 16.0357 109.656 16.1735C110.345 14.2805 110.814 12.3047 111.246 10.3382C111.723 8.11432 112.201 5.89046 112.725 3.6758C113.763 3.79526 114.811 3.88715 115.849 4.04337C116.144 6.83698 116.061 9.64896 115.868 12.4426C115.849 12.6539 115.895 12.8745 115.978 13.0675C116.465 14.3448 116.934 15.6221 117.412 16.8995C118.735 16.7524 120.049 16.5411 121.372 16.3757C121.896 16.3205 122.383 16.1092 122.898 15.9897C124.938 15.4016 126.969 14.7859 128.981 14.1059C130.341 13.4902 131.711 12.8929 133.061 12.2404C133.117 11.4593 133.309 10.6782 133.282 9.88789C133.245 8.19702 133.144 6.50616 133.098 4.81529C133.98 4.31906 134.771 3.6758 135.46 2.93145C135.8 2.59144 136.048 2.14115 136.416 1.81952ZM41.7822 3.37254C42.0487 3.16118 42.2968 2.91307 42.6 2.73847C43.2892 3.16118 43.9233 3.6758 44.5942 4.13527C46.2483 5.3299 47.9207 6.50616 49.5749 7.70079C49.7219 7.80188 49.8781 7.89377 50.0527 7.94891C53.0117 8.70245 55.7042 10.2003 58.4611 11.4777C59.573 11.9831 60.639 12.608 61.8153 12.9572C62.7893 13.288 63.7726 13.6096 64.7375 13.9588C66.0608 14.5378 67.3657 15.1351 68.689 15.714C69.4977 16.0632 70.3707 16.2194 71.1426 16.6422C72.181 17.2119 73.3848 17.4049 74.4324 17.9471C75.5352 18.526 76.6471 19.1141 77.759 19.6931C77.759 20.1617 77.759 20.6212 77.759 21.0899C75.8108 22.7716 73.6605 24.2235 71.4091 25.4641C67.9722 27.3663 64.278 28.7539 60.5103 29.8475C61.6958 30.7572 63.0926 31.3362 64.471 31.8875C66.3365 32.5767 68.2203 33.2292 70.0674 33.9827C71.8686 34.6995 73.6881 35.3703 75.526 35.9677C76.2703 36.2066 77.0514 36.3444 77.7774 36.6293C78.2644 36.8223 78.7882 36.9601 79.2477 37.2174C79.4131 37.5666 79.4407 37.9618 79.5234 38.3385C79.5142 37.9526 79.5234 37.5574 79.4499 37.1715C79.3856 36.8315 79.2293 36.519 79.1926 36.179C79.1282 35.6276 79.2293 35.0671 79.1834 34.5157C79.165 33.7162 78.972 32.9259 78.9169 32.1264C78.7607 30.1783 79.358 28.1842 78.7607 26.2819C79.018 25.7489 79.0547 25.1608 78.9904 24.5819C80.4515 23.4975 81.9402 22.4407 83.4014 21.3472C83.5208 21.2645 83.6403 21.1818 83.7781 21.1266C84.21 21.2461 84.596 21.5034 84.9452 21.7791C85.2852 22.0272 85.276 22.4775 85.3587 22.8543C85.4598 23.6446 85.6895 24.4348 85.6528 25.2343C85.6436 25.5927 85.6712 25.9419 85.7722 26.2911C85.9836 26.9987 85.7355 27.7614 85.9744 28.469C86.2869 29.4431 86.2042 30.4815 86.3052 31.4832C86.342 31.9886 86.5625 32.4481 86.6269 32.9535C86.7463 33.8816 86.8658 34.8006 86.9669 35.7287C87.068 36.8498 87.6285 37.8883 87.5826 39.0186C87.5366 39.8272 87.6561 40.6267 87.8215 41.417C88.1431 42.869 88.0972 44.376 87.9961 45.8464C86.2409 47.574 83.9435 48.64 81.5818 49.2465C80.8742 48.1897 80.4148 46.9767 80.2494 45.7177C80.2034 45.2766 79.9461 44.8815 79.9094 44.4404C79.845 42.5014 79.7164 40.5716 79.5969 38.6326C78.4758 39.5883 77.2536 40.4521 75.8752 41.0035C74.8092 41.4354 73.734 41.8673 72.668 42.3084C72.2086 42.5198 71.694 42.4371 71.2069 42.4003C69.1577 42.2073 67.1635 41.6651 65.2521 40.9116C63.5337 40.2316 61.7785 39.6343 60.106 38.844C59.2973 38.458 58.3876 38.3477 57.5789 37.971C56.8437 37.6218 56.1086 37.2909 55.355 36.9877C55.401 38.1731 55.548 39.3402 55.7226 40.5165C55.9707 42.336 56.3843 44.1555 56.274 46.0026C55.4102 46.3518 54.6199 46.8664 53.9399 47.5005C53.5998 47.8037 53.3242 48.1897 52.9014 48.3827C52.1295 48.7686 51.3392 49.1086 50.503 49.32C50.016 48.934 49.4646 48.6308 49.0143 48.1989C48.9224 47.7853 48.9592 47.3626 48.9132 46.9399C48.7019 45.295 48.2883 43.6776 48.0586 42.0327C47.9851 41.3435 47.9116 40.6451 47.7829 39.9559C47.691 39.4045 47.5348 38.8715 47.4705 38.311C47.4245 36.9326 47.1672 35.5633 46.8364 34.2217C44.9893 33.3946 42.9033 33.1649 40.9 33.4222C40.8265 35.8574 41.0378 38.2834 41.4238 40.6819C41.4881 41.0494 41.4973 41.417 41.4973 41.7846C41.5065 42.3268 41.6995 42.8414 41.9016 43.3284C41.9568 43.503 42.067 43.6868 41.9751 43.8706C41.7178 44.615 41.3411 45.3042 40.9551 45.9842C40.8448 46.168 40.7438 46.3702 40.5692 46.508C40.1097 46.7102 39.6043 46.7929 39.1172 46.9215C37.8583 47.2064 36.5442 47.3626 35.2668 47.1053C34.0814 46.8848 32.9786 46.2047 32.2986 45.2031C31.3705 43.8522 31.058 42.1889 30.9478 40.5808C30.8007 37.9985 31.1224 35.4071 31.6002 32.8708C31.977 30.8124 32.4824 28.7815 33.0246 26.769C31.0856 26.962 29.1926 27.4306 27.2812 27.7706C24.7357 28.1106 22.2361 28.6528 19.7274 29.2042C18.7993 29.4523 17.8987 29.7923 16.9889 30.0772C17.9079 32.8432 18.9463 35.5817 20.3523 38.1364C20.9588 39.2483 21.8042 40.2132 22.3923 41.3435C23.2654 42.9517 24.1659 44.5414 25.0205 46.1588C22.4015 47.5372 19.5069 48.3091 16.6122 48.8421C15.1878 47.6015 14.0942 46.021 13.2396 44.3393C12.4401 42.7127 11.6774 41.0586 10.9055 39.4229C10.3541 38.3937 9.76599 37.3736 9.24219 36.326C8.58974 34.8833 8.14864 33.3119 7.09185 32.0989C5.88803 32.4573 4.64745 32.7146 3.38849 32.6686C2.3317 32.687 1.29328 32.4113 0.355957 31.9243V31.8416C0.548936 30.9778 1.08193 30.2334 1.716 29.6361C2.80955 28.5977 4.17878 27.8993 5.53883 27.2836C5.01503 25.1424 4.52798 22.9921 4.06851 20.8326C3.86634 19.9963 3.73769 19.1417 3.50795 18.3055C3.00253 16.6881 2.53387 15.0064 2.57981 13.2972C2.589 11.9463 2.57981 10.5955 2.57981 9.24463C4.95989 8.26135 7.19294 6.92887 9.24219 5.36666C9.55464 5.13692 9.8487 4.81529 10.2622 4.77853C10.9331 4.68664 11.6131 4.62231 12.2839 4.5488C12.1553 5.80776 12.0358 7.06672 11.9898 8.33487C11.8244 12.755 12.872 17.1108 14.3424 21.2461C15.7943 20.1525 17.1911 18.9947 18.5879 17.846C20.1317 16.5411 21.6756 15.227 23.2745 13.9864C23.9086 13.4902 24.4967 12.9388 25.0757 12.3782C26.7022 10.8528 28.1266 9.07921 29.9921 7.82025C30.2126 7.65484 30.5067 7.68241 30.764 7.68241C31.5267 7.6916 32.2802 7.68241 33.043 7.6916C33.1532 8.12351 33.2543 8.55541 33.3554 8.98732C31.7013 10.5771 30.0288 12.1577 28.3747 13.7567C27.8325 14.2621 27.1617 14.6205 26.6655 15.181C26.2611 15.6313 25.8935 16.1092 25.4341 16.5043C23.3297 18.2871 21.2253 20.079 19.1117 21.8618C18.6522 22.2569 18.1652 22.6245 17.7792 23.084C17.1727 23.8008 16.5846 24.5267 15.9965 25.2527C18.2387 24.8576 20.4717 24.4073 22.714 23.9754C24.6989 23.5527 26.7114 23.2586 28.6688 22.7072C29.0639 22.6153 29.4591 22.5694 29.8542 22.5142C32.8592 22.0548 35.8641 21.6137 38.8691 21.1542C39.5124 21.0807 40.1097 20.7958 40.7529 20.7315C41.2584 20.6763 41.773 20.7039 42.2784 20.7682C42.0762 20.0423 41.5708 19.4633 41.2492 18.8017C40.8357 18.0022 40.4589 17.1843 40.0821 16.3757C39.7972 15.7967 39.7605 15.1167 39.4297 14.5561C38.2534 12.4426 37.0863 10.3198 35.9101 8.20621C37.022 7.02996 38.281 6.00074 39.5767 5.02665C40.3027 4.4569 41.0746 3.96067 41.7822 3.37254ZM48.371 15.6129C49.4462 18.7374 50.3927 21.9169 51.7068 24.9495C51.8906 25.3078 52.0101 25.7306 52.3317 25.9879C53.3242 25.9511 54.2983 25.7949 55.2907 25.7214C57.4502 25.4916 59.6006 25.1884 61.7234 24.7565C63.3591 24.4073 64.9948 23.9938 66.557 23.3689C66.9062 23.2402 67.1635 22.9645 67.43 22.7164C66.4008 22.0915 65.2705 21.6412 64.1218 21.2645C63.5245 21.0623 62.8996 20.952 62.3299 20.6672C60.7033 19.8952 59.1135 19.0039 57.3859 18.4525C57.0459 18.3422 56.6783 18.3238 56.3567 18.1768C53.8663 16.9087 51.1279 16.1367 48.371 15.6129ZM42.6092 23.911C41.9751 25.7306 41.4789 27.596 41.2308 29.5074C42.3152 28.6804 43.5006 27.9912 44.7136 27.3663C44.1531 25.8592 43.5925 24.3521 43.0503 22.8359C42.8849 23.1851 42.7379 23.5435 42.6092 23.911Z" fill="#030304"/>
</svg>
