<svg width="325" height="58" viewBox="0 0 325 58" fill="none" xmlns="http://www.w3.org/2000/svg">
<g clip-path="url(#clip0_480_3554)" filter="url(#filter0_d_480_3554)">
<mask id="path-1-outside-1_480_3554" maskUnits="userSpaceOnUse" x="4.7688" y="-1" width="319" height="54" fill="black">
<rect fill="white" x="4.7688" y="-1" width="319" height="54"/>
<path d="M37.9672 48.583C38.372 48.583 38.9793 48.1781 39.3842 47.3684C39.9915 46.5587 40.1939 45.3441 40.1939 43.3198V14.9798L25.4166 49.1903L10.4368 14.9798V42.915C10.4368 44.9393 10.8417 46.3563 11.449 47.166C12.0562 47.9757 12.6635 48.3806 13.2708 48.583H4.7688C5.37609 48.583 5.98337 48.1781 6.59066 47.3684C7.19795 46.5587 7.60281 45.1417 7.60281 43.1174V14.7773C7.60281 12.9555 7.19795 11.7409 6.59066 11.1336C5.98337 10.1215 5.37609 9.7166 4.7688 9.7166H12.4611L26.2263 41.2955L39.789 9.7166H46.6716C46.2668 9.7166 45.6595 10.1215 45.0522 10.9312C44.4449 11.7409 44.2425 12.9555 44.2425 14.7773V43.5223C44.2425 45.3441 44.4449 46.7611 45.0522 47.3684C45.6595 48.1781 46.0643 48.3806 46.6716 48.583H37.9672ZM70.9631 33.4008L67.3194 42.3077C66.7121 43.7247 66.5097 44.9393 66.5097 45.749C66.5097 46.9636 67.117 47.7733 68.1291 48.3806H60.032C60.4368 48.3806 61.0441 47.9757 61.6514 47.166C62.2587 46.3563 63.2708 44.9393 64.0805 42.7126L78.8579 7.69231L93.4328 42.915C94.2425 44.9393 95.0522 46.3563 95.8619 47.166C96.6716 47.9757 97.2789 48.3806 97.6838 48.3806H88.372C89.3842 47.9757 89.789 47.166 89.789 46.3563C89.789 45.5466 89.3842 44.332 88.7769 42.915L84.7283 33.1984L70.9631 33.4008ZM84.121 31.1741L78.0482 15.9919L71.9753 31.1741H84.121ZM147.481 9.7166C147.076 9.7166 146.469 10.1215 146.064 10.9312C145.66 11.7409 145.255 12.9555 145.255 14.7773V50L116.307 16.3968V43.5223C116.307 45.3441 116.712 46.5587 117.319 47.3684C117.927 48.1781 118.534 48.583 119.141 48.583H111.247L112.866 47.3684C113.473 46.5587 113.676 45.3441 113.676 43.5223V15.1822C113.676 13.9676 113.271 12.753 112.461 11.7409C111.651 10.7287 110.437 9.91903 109.222 9.7166H116.105L142.421 40.4858V14.7773C142.421 11.9433 141.408 10.1215 139.587 9.7166H147.481ZM169.546 48.3806C167.724 47.7733 166.105 47.166 164.688 46.1538V39.2713C165.529 41.5877 167.09 43.574 169.141 44.9393C171.166 46.1538 173.19 46.9636 175.417 46.9636C177.643 46.9636 179.465 46.1538 180.882 44.7368C182.299 43.3198 183.109 41.498 183.109 39.2713C183.109 37.8543 182.906 36.6397 182.299 35.6275C181.692 34.6154 180.68 33.6032 179.465 32.7935L174 29.7571C171.336 28.7226 168.921 27.1359 166.915 25.1012C165.484 23.4795 164.693 21.393 164.688 19.2308C164.688 17.2065 165.093 15.3846 166.105 13.9676C167.117 12.3482 168.332 11.1336 169.951 10.3239C171.57 9.51417 173.392 9.10931 175.417 9.10931C177.036 9.10931 178.858 9.31174 180.275 9.91903C181.894 10.3239 183.514 11.1336 184.728 11.9433V18.0162C183.919 15.9919 182.502 14.3725 180.68 13.1579C178.858 11.9433 177.036 11.336 175.012 11.336C172.785 11.336 171.166 11.9433 169.749 13.3603C168.332 14.7773 167.724 16.3968 167.724 18.4211C167.724 19.8381 168.129 21.0526 168.939 22.0648C169.749 23.0769 170.761 23.8866 171.773 24.4939L176.631 26.9231L181.894 29.7571C183.37 30.6328 184.594 31.8765 185.446 33.3668C186.297 34.857 186.748 36.5427 186.753 38.2591C186.753 40.4858 186.145 42.5101 185.133 44.1296C184.121 45.749 182.704 47.166 180.882 47.9757C179.06 48.7854 177.238 49.3927 175.012 49.3927C173.19 49.1903 171.368 48.9879 169.546 48.3806ZM208.413 0H215.093L202.542 7.08502L208.413 0ZM203.757 48.1781C204.162 47.9757 204.566 47.3684 204.971 46.5587C205.376 45.749 205.579 44.7368 205.579 43.1174V14.7773C205.629 13.5997 205.422 12.4253 204.971 11.336L203.757 9.7166C203.352 9.31174 203.149 9.51417 203.149 9.51417H212.056L211.449 9.7166C211.044 9.91903 210.639 10.5263 210.234 11.336C209.83 12.1457 209.627 13.1579 209.627 14.7773V43.1174C209.627 44.5344 209.83 45.749 210.234 46.5587L211.449 48.1781L212.056 48.3806H203.149C203.149 48.583 203.352 48.583 203.757 48.1781ZM230.68 18.8259C232.357 15.746 234.887 13.2156 237.967 11.5385C241.004 9.7166 244.647 8.90688 248.696 8.90688C252.137 8.90688 255.174 9.7166 258.21 11.1336C261.201 12.5807 263.675 14.9129 265.295 17.8138C267.15 21.0769 268.061 24.7915 267.927 28.5425C267.927 32.5911 267.117 36.0324 265.295 39.2713C263.618 42.3512 261.088 44.8816 258.008 46.5587C254.971 48.3806 251.328 49.1903 247.279 49.1903C243.838 49.1903 240.801 48.3806 237.765 46.9636C234.774 45.5164 232.3 43.1842 230.68 40.2834C228.825 37.0203 227.914 33.3057 228.048 29.5547C228.048 25.5061 228.858 21.8623 230.68 18.8259ZM261.247 20.2429C259.904 17.5979 257.877 15.3611 255.376 13.7652C253.033 12.2417 250.305 11.4139 247.511 11.3781C244.716 11.3423 241.968 12.0998 239.587 13.5628C237.36 14.9798 235.74 17.004 234.323 19.6356C232.906 22.2672 232.502 25.3036 232.502 28.7449C232.4 31.9919 233.169 35.2068 234.728 38.0567C236.071 40.7017 238.098 42.9385 240.599 44.5344C242.942 46.0579 245.669 46.8856 248.464 46.9215C251.259 46.9573 254.007 46.1998 256.388 44.7368C258.615 43.3198 260.234 41.2955 261.651 38.664C263.068 36.0324 263.473 32.996 263.473 29.5547C263.473 26.1134 262.664 22.8745 261.247 20.2429ZM320.356 9.7166L318.736 10.9312C318.129 11.5385 317.927 12.9555 317.927 14.7773V50L288.979 16.3968V43.5223C288.979 45.3441 289.384 46.5587 289.991 47.3684C290.599 48.1781 291.206 48.583 291.813 48.583H283.919L285.538 47.3684C286.145 46.5587 286.348 45.3441 286.348 43.5223V15.1822C286.348 13.9676 285.943 12.753 285.133 11.7409C284.323 10.7287 283.109 9.91903 281.894 9.7166H288.979L315.295 40.4858V14.7773C315.295 11.9433 314.283 10.1215 312.461 9.7166H320.356Z"/>
</mask>
<path d="M37.9672 48.583C38.372 48.583 38.9793 48.1781 39.3842 47.3684C39.9915 46.5587 40.1939 45.3441 40.1939 43.3198V14.9798L25.4166 49.1903L10.4368 14.9798V42.915C10.4368 44.9393 10.8417 46.3563 11.449 47.166C12.0562 47.9757 12.6635 48.3806 13.2708 48.583H4.7688C5.37609 48.583 5.98337 48.1781 6.59066 47.3684C7.19795 46.5587 7.60281 45.1417 7.60281 43.1174V14.7773C7.60281 12.9555 7.19795 11.7409 6.59066 11.1336C5.98337 10.1215 5.37609 9.7166 4.7688 9.7166H12.4611L26.2263 41.2955L39.789 9.7166H46.6716C46.2668 9.7166 45.6595 10.1215 45.0522 10.9312C44.4449 11.7409 44.2425 12.9555 44.2425 14.7773V43.5223C44.2425 45.3441 44.4449 46.7611 45.0522 47.3684C45.6595 48.1781 46.0643 48.3806 46.6716 48.583H37.9672ZM70.9631 33.4008L67.3194 42.3077C66.7121 43.7247 66.5097 44.9393 66.5097 45.749C66.5097 46.9636 67.117 47.7733 68.1291 48.3806H60.032C60.4368 48.3806 61.0441 47.9757 61.6514 47.166C62.2587 46.3563 63.2708 44.9393 64.0805 42.7126L78.8579 7.69231L93.4328 42.915C94.2425 44.9393 95.0522 46.3563 95.8619 47.166C96.6716 47.9757 97.2789 48.3806 97.6838 48.3806H88.372C89.3842 47.9757 89.789 47.166 89.789 46.3563C89.789 45.5466 89.3842 44.332 88.7769 42.915L84.7283 33.1984L70.9631 33.4008ZM84.121 31.1741L78.0482 15.9919L71.9753 31.1741H84.121ZM147.481 9.7166C147.076 9.7166 146.469 10.1215 146.064 10.9312C145.66 11.7409 145.255 12.9555 145.255 14.7773V50L116.307 16.3968V43.5223C116.307 45.3441 116.712 46.5587 117.319 47.3684C117.927 48.1781 118.534 48.583 119.141 48.583H111.247L112.866 47.3684C113.473 46.5587 113.676 45.3441 113.676 43.5223V15.1822C113.676 13.9676 113.271 12.753 112.461 11.7409C111.651 10.7287 110.437 9.91903 109.222 9.7166H116.105L142.421 40.4858V14.7773C142.421 11.9433 141.408 10.1215 139.587 9.7166H147.481ZM169.546 48.3806C167.724 47.7733 166.105 47.166 164.688 46.1538V39.2713C165.529 41.5877 167.09 43.574 169.141 44.9393C171.166 46.1538 173.19 46.9636 175.417 46.9636C177.643 46.9636 179.465 46.1538 180.882 44.7368C182.299 43.3198 183.109 41.498 183.109 39.2713C183.109 37.8543 182.906 36.6397 182.299 35.6275C181.692 34.6154 180.68 33.6032 179.465 32.7935L174 29.7571C171.336 28.7226 168.921 27.1359 166.915 25.1012C165.484 23.4795 164.693 21.393 164.688 19.2308C164.688 17.2065 165.093 15.3846 166.105 13.9676C167.117 12.3482 168.332 11.1336 169.951 10.3239C171.57 9.51417 173.392 9.10931 175.417 9.10931C177.036 9.10931 178.858 9.31174 180.275 9.91903C181.894 10.3239 183.514 11.1336 184.728 11.9433V18.0162C183.919 15.9919 182.502 14.3725 180.68 13.1579C178.858 11.9433 177.036 11.336 175.012 11.336C172.785 11.336 171.166 11.9433 169.749 13.3603C168.332 14.7773 167.724 16.3968 167.724 18.4211C167.724 19.8381 168.129 21.0526 168.939 22.0648C169.749 23.0769 170.761 23.8866 171.773 24.4939L176.631 26.9231L181.894 29.7571C183.37 30.6328 184.594 31.8765 185.446 33.3668C186.297 34.857 186.748 36.5427 186.753 38.2591C186.753 40.4858 186.145 42.5101 185.133 44.1296C184.121 45.749 182.704 47.166 180.882 47.9757C179.06 48.7854 177.238 49.3927 175.012 49.3927C173.19 49.1903 171.368 48.9879 169.546 48.3806ZM208.413 0H215.093L202.542 7.08502L208.413 0ZM203.757 48.1781C204.162 47.9757 204.566 47.3684 204.971 46.5587C205.376 45.749 205.579 44.7368 205.579 43.1174V14.7773C205.629 13.5997 205.422 12.4253 204.971 11.336L203.757 9.7166C203.352 9.31174 203.149 9.51417 203.149 9.51417H212.056L211.449 9.7166C211.044 9.91903 210.639 10.5263 210.234 11.336C209.83 12.1457 209.627 13.1579 209.627 14.7773V43.1174C209.627 44.5344 209.83 45.749 210.234 46.5587L211.449 48.1781L212.056 48.3806H203.149C203.149 48.583 203.352 48.583 203.757 48.1781ZM230.68 18.8259C232.357 15.746 234.887 13.2156 237.967 11.5385C241.004 9.7166 244.647 8.90688 248.696 8.90688C252.137 8.90688 255.174 9.7166 258.21 11.1336C261.201 12.5807 263.675 14.9129 265.295 17.8138C267.15 21.0769 268.061 24.7915 267.927 28.5425C267.927 32.5911 267.117 36.0324 265.295 39.2713C263.618 42.3512 261.088 44.8816 258.008 46.5587C254.971 48.3806 251.328 49.1903 247.279 49.1903C243.838 49.1903 240.801 48.3806 237.765 46.9636C234.774 45.5164 232.3 43.1842 230.68 40.2834C228.825 37.0203 227.914 33.3057 228.048 29.5547C228.048 25.5061 228.858 21.8623 230.68 18.8259ZM261.247 20.2429C259.904 17.5979 257.877 15.3611 255.376 13.7652C253.033 12.2417 250.305 11.4139 247.511 11.3781C244.716 11.3423 241.968 12.0998 239.587 13.5628C237.36 14.9798 235.74 17.004 234.323 19.6356C232.906 22.2672 232.502 25.3036 232.502 28.7449C232.4 31.9919 233.169 35.2068 234.728 38.0567C236.071 40.7017 238.098 42.9385 240.599 44.5344C242.942 46.0579 245.669 46.8856 248.464 46.9215C251.259 46.9573 254.007 46.1998 256.388 44.7368C258.615 43.3198 260.234 41.2955 261.651 38.664C263.068 36.0324 263.473 32.996 263.473 29.5547C263.473 26.1134 262.664 22.8745 261.247 20.2429ZM320.356 9.7166L318.736 10.9312C318.129 11.5385 317.927 12.9555 317.927 14.7773V50L288.979 16.3968V43.5223C288.979 45.3441 289.384 46.5587 289.991 47.3684C290.599 48.1781 291.206 48.583 291.813 48.583H283.919L285.538 47.3684C286.145 46.5587 286.348 45.3441 286.348 43.5223V15.1822C286.348 13.9676 285.943 12.753 285.133 11.7409C284.323 10.7287 283.109 9.91903 281.894 9.7166H288.979L315.295 40.4858V14.7773C315.295 11.9433 314.283 10.1215 312.461 9.7166H320.356Z" fill="black"/>
<path d="M37.9672 48.583C38.372 48.583 38.9793 48.1781 39.3842 47.3684C39.9915 46.5587 40.1939 45.3441 40.1939 43.3198V14.9798L25.4166 49.1903L10.4368 14.9798V42.915C10.4368 44.9393 10.8417 46.3563 11.449 47.166C12.0562 47.9757 12.6635 48.3806 13.2708 48.583H4.7688C5.37609 48.583 5.98337 48.1781 6.59066 47.3684C7.19795 46.5587 7.60281 45.1417 7.60281 43.1174V14.7773C7.60281 12.9555 7.19795 11.7409 6.59066 11.1336C5.98337 10.1215 5.37609 9.7166 4.7688 9.7166H12.4611L26.2263 41.2955L39.789 9.7166H46.6716C46.2668 9.7166 45.6595 10.1215 45.0522 10.9312C44.4449 11.7409 44.2425 12.9555 44.2425 14.7773V43.5223C44.2425 45.3441 44.4449 46.7611 45.0522 47.3684C45.6595 48.1781 46.0643 48.3806 46.6716 48.583H37.9672ZM70.9631 33.4008L67.3194 42.3077C66.7121 43.7247 66.5097 44.9393 66.5097 45.749C66.5097 46.9636 67.117 47.7733 68.1291 48.3806H60.032C60.4368 48.3806 61.0441 47.9757 61.6514 47.166C62.2587 46.3563 63.2708 44.9393 64.0805 42.7126L78.8579 7.69231L93.4328 42.915C94.2425 44.9393 95.0522 46.3563 95.8619 47.166C96.6716 47.9757 97.2789 48.3806 97.6838 48.3806H88.372C89.3842 47.9757 89.789 47.166 89.789 46.3563C89.789 45.5466 89.3842 44.332 88.7769 42.915L84.7283 33.1984L70.9631 33.4008ZM84.121 31.1741L78.0482 15.9919L71.9753 31.1741H84.121ZM147.481 9.7166C147.076 9.7166 146.469 10.1215 146.064 10.9312C145.66 11.7409 145.255 12.9555 145.255 14.7773V50L116.307 16.3968V43.5223C116.307 45.3441 116.712 46.5587 117.319 47.3684C117.927 48.1781 118.534 48.583 119.141 48.583H111.247L112.866 47.3684C113.473 46.5587 113.676 45.3441 113.676 43.5223V15.1822C113.676 13.9676 113.271 12.753 112.461 11.7409C111.651 10.7287 110.437 9.91903 109.222 9.7166H116.105L142.421 40.4858V14.7773C142.421 11.9433 141.408 10.1215 139.587 9.7166H147.481ZM169.546 48.3806C167.724 47.7733 166.105 47.166 164.688 46.1538V39.2713C165.529 41.5877 167.09 43.574 169.141 44.9393C171.166 46.1538 173.19 46.9636 175.417 46.9636C177.643 46.9636 179.465 46.1538 180.882 44.7368C182.299 43.3198 183.109 41.498 183.109 39.2713C183.109 37.8543 182.906 36.6397 182.299 35.6275C181.692 34.6154 180.68 33.6032 179.465 32.7935L174 29.7571C171.336 28.7226 168.921 27.1359 166.915 25.1012C165.484 23.4795 164.693 21.393 164.688 19.2308C164.688 17.2065 165.093 15.3846 166.105 13.9676C167.117 12.3482 168.332 11.1336 169.951 10.3239C171.57 9.51417 173.392 9.10931 175.417 9.10931C177.036 9.10931 178.858 9.31174 180.275 9.91903C181.894 10.3239 183.514 11.1336 184.728 11.9433V18.0162C183.919 15.9919 182.502 14.3725 180.68 13.1579C178.858 11.9433 177.036 11.336 175.012 11.336C172.785 11.336 171.166 11.9433 169.749 13.3603C168.332 14.7773 167.724 16.3968 167.724 18.4211C167.724 19.8381 168.129 21.0526 168.939 22.0648C169.749 23.0769 170.761 23.8866 171.773 24.4939L176.631 26.9231L181.894 29.7571C183.37 30.6328 184.594 31.8765 185.446 33.3668C186.297 34.857 186.748 36.5427 186.753 38.2591C186.753 40.4858 186.145 42.5101 185.133 44.1296C184.121 45.749 182.704 47.166 180.882 47.9757C179.06 48.7854 177.238 49.3927 175.012 49.3927C173.19 49.1903 171.368 48.9879 169.546 48.3806ZM208.413 0H215.093L202.542 7.08502L208.413 0ZM203.757 48.1781C204.162 47.9757 204.566 47.3684 204.971 46.5587C205.376 45.749 205.579 44.7368 205.579 43.1174V14.7773C205.629 13.5997 205.422 12.4253 204.971 11.336L203.757 9.7166C203.352 9.31174 203.149 9.51417 203.149 9.51417H212.056L211.449 9.7166C211.044 9.91903 210.639 10.5263 210.234 11.336C209.83 12.1457 209.627 13.1579 209.627 14.7773V43.1174C209.627 44.5344 209.83 45.749 210.234 46.5587L211.449 48.1781L212.056 48.3806H203.149C203.149 48.583 203.352 48.583 203.757 48.1781ZM230.68 18.8259C232.357 15.746 234.887 13.2156 237.967 11.5385C241.004 9.7166 244.647 8.90688 248.696 8.90688C252.137 8.90688 255.174 9.7166 258.21 11.1336C261.201 12.5807 263.675 14.9129 265.295 17.8138C267.15 21.0769 268.061 24.7915 267.927 28.5425C267.927 32.5911 267.117 36.0324 265.295 39.2713C263.618 42.3512 261.088 44.8816 258.008 46.5587C254.971 48.3806 251.328 49.1903 247.279 49.1903C243.838 49.1903 240.801 48.3806 237.765 46.9636C234.774 45.5164 232.3 43.1842 230.68 40.2834C228.825 37.0203 227.914 33.3057 228.048 29.5547C228.048 25.5061 228.858 21.8623 230.68 18.8259ZM261.247 20.2429C259.904 17.5979 257.877 15.3611 255.376 13.7652C253.033 12.2417 250.305 11.4139 247.511 11.3781C244.716 11.3423 241.968 12.0998 239.587 13.5628C237.36 14.9798 235.74 17.004 234.323 19.6356C232.906 22.2672 232.502 25.3036 232.502 28.7449C232.4 31.9919 233.169 35.2068 234.728 38.0567C236.071 40.7017 238.098 42.9385 240.599 44.5344C242.942 46.0579 245.669 46.8856 248.464 46.9215C251.259 46.9573 254.007 46.1998 256.388 44.7368C258.615 43.3198 260.234 41.2955 261.651 38.664C263.068 36.0324 263.473 32.996 263.473 29.5547C263.473 26.1134 262.664 22.8745 261.247 20.2429ZM320.356 9.7166L318.736 10.9312C318.129 11.5385 317.927 12.9555 317.927 14.7773V50L288.979 16.3968V43.5223C288.979 45.3441 289.384 46.5587 289.991 47.3684C290.599 48.1781 291.206 48.583 291.813 48.583H283.919L285.538 47.3684C286.145 46.5587 286.348 45.3441 286.348 43.5223V15.1822C286.348 13.9676 285.943 12.753 285.133 11.7409C284.323 10.7287 283.109 9.91903 281.894 9.7166H288.979L315.295 40.4858V14.7773C315.295 11.9433 314.283 10.1215 312.461 9.7166H320.356Z" stroke="black" stroke-width="2" mask="url(#path-1-outside-1_480_3554)"/>
</g>
<defs>
<filter id="filter0_d_480_3554" x="0.768799" y="0" width="323.587" height="58" filterUnits="userSpaceOnUse" color-interpolation-filters="sRGB">
<feFlood flood-opacity="0" result="BackgroundImageFix"/>
<feColorMatrix in="SourceAlpha" type="matrix" values="0 0 0 0 0 0 0 0 0 0 0 0 0 0 0 0 0 0 127 0" result="hardAlpha"/>
<feOffset dy="4"/>
<feGaussianBlur stdDeviation="2"/>
<feComposite in2="hardAlpha" operator="out"/>
<feColorMatrix type="matrix" values="0 0 0 0 0 0 0 0 0 0 0 0 0 0 0 0 0 0 0.25 0"/>
<feBlend mode="normal" in2="BackgroundImageFix" result="effect1_dropShadow_480_3554"/>
<feBlend mode="normal" in="SourceGraphic" in2="effect1_dropShadow_480_3554" result="shape"/>
</filter>
<clipPath id="clip0_480_3554">
<rect width="315.587" height="50" fill="white" transform="translate(4.7688)"/>
</clipPath>
</defs>
</svg>
