<svg width="161" height="50" viewBox="0 0 161 50" fill="none" xmlns="http://www.w3.org/2000/svg">
<g clip-path="url(#clip0_480_2491)">
<path d="M19.4158 0.477707H28.9681V1.07472H26.8785V24.9553H28.9681V25.5523H17.9233V24.9553H20.0128V2.56726H19.7143L14.3412 25.5523H9.86359L3.59494 2.26875V24.9553H5.38598V25.5523H0.609863V24.9553H2.69942V1.07472H0.609863V0.477707H10.1621L14.9382 18.9852L19.4158 0.477707ZM39.4158 41.6717C39.4158 44.0598 40.0128 45.5523 40.6099 46.7464C41.5054 47.9404 42.6994 48.5374 44.789 48.5374C46.58 48.5374 48.0725 47.9404 49.2666 46.7464C50.1621 45.5523 50.7591 43.7613 50.7591 41.3732V1.07472H48.3711V0.477707H53.7442V1.07472H51.6546V41.0747C51.6546 44.0598 51.0576 46.1493 49.8636 47.6419C48.3711 49.1344 45.983 49.7314 42.6994 49.7314C39.4158 49.7314 37.0278 49.1344 35.2367 47.6419C33.4457 46.4479 32.5502 44.0598 32.5502 40.4777V1.07472H30.4606V0.477707H41.8039V1.07472H39.4158V41.6717ZM65.6845 25.2538C66.8785 25.2538 67.774 24.9553 68.6696 24.0598C69.5651 23.4628 70.1621 22.5673 70.1621 21.3732C70.1621 19.8807 69.5651 18.9852 68.6696 18.3882C67.4755 17.4926 66.2815 16.8956 64.4905 16.5971L60.3114 15.1046L57.9233 13.612C56.4308 12.418 55.8337 10.3285 55.8337 7.94039C55.8337 5.85084 56.7293 3.76129 58.2218 2.26875C59.7143 0.776214 61.8039 0.179199 64.192 0.179199C65.6845 0.179199 66.8785 0.179199 68.3711 0.776214L70.7591 1.07472C71.0576 1.07472 71.3561 1.07472 71.6546 0.477707H72.2516V7.64189H71.9531C70.7591 5.55233 69.5651 4.0598 68.0725 2.86577C66.8785 1.37323 65.6845 0.776214 64.192 0.776214C62.6994 0.776214 61.5054 1.07472 60.6099 1.97024C60.0128 2.56726 59.4158 3.46278 59.4158 4.65681C59.4158 5.85084 60.0128 6.44786 60.9084 7.34338L64.4905 8.53741C66.5203 9.22398 68.5203 10.0299 70.4606 10.9255C71.4158 11.5523 72.2218 12.3583 72.8487 13.3135C73.7442 14.5076 74.0427 15.7016 74.0427 17.4926C74.0427 19.8807 73.1472 21.9702 71.3561 23.4628C69.8636 25.2538 67.774 25.8508 65.0875 25.8508C63.8934 25.8508 62.1024 25.8508 60.3114 25.2538L57.6248 24.9553L56.7293 25.8508H56.1322L55.8337 17.4926H56.4308C57.3263 19.5822 58.8188 21.3732 60.3114 22.8658C62.1024 24.3583 63.5949 25.2538 65.6845 25.2538ZM96.4308 0.477707L97.0278 9.43293H96.1322C95.2367 6.14935 94.3412 4.0598 93.4457 2.86577C92.5502 1.67174 91.3561 1.37323 89.8636 1.37323H89.5651V24.6568H92.5502V25.5523H79.4158V24.6568H82.4009V1.37323H82.1024C80.6099 1.37323 79.4158 1.97024 78.5203 3.16427C77.6248 4.3583 76.7293 6.44786 75.8337 9.43293H74.9382L75.5352 0.477707H96.4308ZM99.1173 0.477707H110.162V1.07472H108.073V24.9553H110.162V25.5523H99.1173V24.9553H101.207V1.07472H99.1173V0.477707ZM125.386 0.776214C121.505 0.776214 119.714 4.3583 119.714 11.5225V14.209C119.714 17.7911 120.311 20.4777 121.207 22.2688C122.102 24.3583 123.595 25.2538 125.386 25.2538C128.073 25.2538 130.461 22.5673 132.849 17.4926H133.446L133.147 25.5523H132.849L132.252 24.9553L131.953 24.6568L129.267 25.2538C127.774 25.8508 126.282 25.8508 124.789 25.8508C120.908 25.8508 117.625 24.9553 115.535 22.8658C113.446 20.7762 112.55 17.4926 112.55 13.3135C112.55 9.13442 113.446 5.85084 115.834 3.46278C117.923 1.37323 120.908 0.179199 124.789 0.179199C126.282 0.179199 127.774 0.179199 128.968 0.776214L131.655 1.07472H131.953L132.55 0.477707H132.849L133.147 8.2389H132.55L129.267 2.86577C128.073 1.37323 126.879 0.776214 125.386 0.776214ZM152.55 14.5076V11.821C152.55 7.34338 152.252 4.65681 151.953 3.46278C151.356 2.26875 150.759 1.37323 149.864 1.07472L148.073 0.776214L146.281 1.07472L144.789 2.26875L144.192 3.76129L143.595 5.85084L143.296 12.1195V14.5076L143.595 20.7762L144.49 23.4628C145.386 24.6568 146.58 25.2538 148.073 25.2538C149.864 25.2538 151.058 24.3583 151.655 22.8658C152.252 21.0747 152.55 18.3882 152.55 14.5076ZM148.073 25.8508C143.893 25.8508 140.908 24.9553 139.117 22.5673C137.028 20.4777 136.132 17.4926 136.132 13.3135C136.132 9.13442 137.028 5.85084 139.117 3.76129C141.207 1.37323 144.49 0.179199 148.073 0.179199C151.953 0.179199 154.938 1.07472 157.028 3.46278C158.819 5.55233 160.013 8.83592 160.013 13.015C160.013 17.1941 158.819 20.1792 157.028 22.5673C154.938 24.6568 151.953 25.8508 148.073 25.8508Z" fill="black"/>
</g>
<defs>
<clipPath id="clip0_480_2491">
<rect width="159.881" height="50" fill="white" transform="translate(0.400879)"/>
</clipPath>
</defs>
</svg>
