<svg width="197" height="70" viewBox="0 0 197 70" fill="none" xmlns="http://www.w3.org/2000/svg">
<path d="M8.48291 31.5084C8.92788 32.3647 9.51898 33.0582 10.2562 33.5887C10.9927 34.12 11.8577 34.5133 12.8519 34.7701C13.8453 35.027 14.8733 35.1554 15.9358 35.1554C16.6554 35.1554 17.4264 35.096 18.2488 34.9756C19.0712 34.856 19.8422 34.6249 20.5618 34.2822C21.2814 33.9402 21.8805 33.4691 22.3608 32.8696C22.8402 32.2708 23.0803 31.5084 23.0803 30.5838C23.0803 29.5909 22.7631 28.786 22.1295 28.1696C21.495 27.5532 20.6646 27.0395 19.6366 26.6286C18.6086 26.2176 17.4433 25.8581 16.1414 25.5499C14.8388 25.2417 13.5201 24.8997 12.1837 24.5225C10.8128 24.1806 9.47639 23.7608 8.17451 23.2641C6.8719 22.768 5.70734 22.1259 4.67935 21.3378C3.65136 20.5504 2.82016 19.5657 2.18648 18.3842C1.55206 17.2028 1.23559 15.7734 1.23559 14.0952C1.23559 12.2122 1.63797 10.5766 2.44348 9.18966C3.24825 7.80276 4.30193 6.64702 5.60454 5.72242C6.90642 4.79783 8.38011 4.11318 10.0249 3.66776C11.6697 3.22308 13.3145 3 14.9592 3C16.8779 3 18.7195 3.21427 20.4847 3.64208C22.2491 4.07062 23.8168 4.76407 25.1877 5.72242C26.5579 6.68151 27.6461 7.9055 28.4516 9.39512C29.2564 10.8847 29.6595 12.6914 29.6595 14.8143H21.8468C21.7777 13.7187 21.5464 12.811 21.1529 12.0919C20.7586 11.3727 20.2358 10.8077 19.5852 10.3968C18.9339 9.98584 18.1886 9.69525 17.3493 9.52354C16.5093 9.35256 15.5929 9.26671 14.5994 9.26671C13.9481 9.26671 13.2968 9.33568 12.6463 9.47217C11.995 9.60939 11.4039 9.84935 10.873 10.1913C10.3414 10.534 9.90447 10.9618 9.5623 11.4755C9.21939 11.9891 9.0483 12.64 9.0483 13.4274C9.0483 14.1465 9.18488 14.7292 9.4595 15.1738C9.73338 15.6193 10.2731 16.0302 11.0786 16.4066C11.8834 16.7838 12.9972 17.1603 14.4195 17.5367C15.8411 17.9139 17.7003 18.3931 19.9964 18.975C20.6815 19.1122 21.6324 19.3602 22.8491 19.7198C24.065 20.0793 25.2729 20.6532 26.4727 21.4406C27.6718 22.2287 28.7086 23.2817 29.5824 24.5996C30.4562 25.9182 30.8931 27.6045 30.8931 29.6592C30.8931 31.3374 30.567 32.8953 29.9165 34.3335C29.2652 35.7718 28.2974 37.0134 27.0124 38.0576C25.7274 39.1025 24.134 39.9156 22.2323 40.4975C20.3305 41.0794 18.1284 41.3707 15.6274 41.3707C13.6052 41.3707 11.644 41.122 9.7422 40.6259C7.84042 40.1299 6.16112 39.3506 4.70505 38.2887C3.24825 37.2277 2.09176 35.8745 1.23559 34.2308C0.378689 32.5871 -0.0325069 30.6351 0.00200414 28.375H7.81472C7.81472 29.6078 8.0372 30.6528 8.48291 31.5084Z" fill="black"/>
<path d="M36.5978 19.6685C37.4202 17.3233 38.6024 15.2767 40.1444 13.5302C41.6864 11.7838 43.5794 10.4145 45.824 9.4209C48.068 8.42806 50.5954 7.93127 53.4055 7.93127C56.2493 7.93127 58.7848 8.42806 61.0126 9.4209C63.2396 10.4145 65.1245 11.7838 66.6665 13.5302C68.2085 15.2767 69.3907 17.3233 70.2131 19.6685C71.0355 22.0145 71.4467 24.5571 71.4467 27.2964C71.4467 29.9675 71.0355 32.4588 70.2131 34.7702C69.3907 37.0817 68.2085 39.0938 66.6665 40.8058C65.1245 42.5185 63.2396 43.8621 61.0126 44.8381C58.7848 45.814 56.2493 46.302 53.4055 46.302C50.5954 46.302 48.068 45.814 45.824 44.8381C43.5794 43.8621 41.6864 42.5185 40.1444 40.8058C38.6024 39.0938 37.4202 37.0817 36.5978 34.7702C35.7755 32.4588 35.3643 29.9675 35.3643 27.2964C35.3643 24.5571 35.7755 22.0145 36.5978 19.6685ZM43.9737 31.791C44.3335 33.2469 44.9069 34.5567 45.6955 35.7205C46.4834 36.8851 47.5114 37.8185 48.7795 38.52C50.0469 39.2222 51.5889 39.573 53.4055 39.573C55.2213 39.573 56.7633 39.2222 58.0314 38.52C59.2988 37.8185 60.3268 36.8851 61.1154 35.7205C61.9033 34.5567 62.4775 33.2469 62.8373 31.791C63.1971 30.3358 63.377 28.8374 63.377 27.2964C63.377 25.6872 63.1971 24.1293 62.8373 22.6221C62.4775 21.1156 61.9033 19.7712 61.1154 18.5898C60.3268 17.4084 59.2988 16.4669 58.0314 15.7647C56.7633 15.0631 55.2213 14.7116 53.4055 14.7116C51.5889 14.7116 50.0469 15.0631 48.7795 15.7647C47.5114 16.4669 46.4834 17.4084 45.6955 18.5898C44.9069 19.7712 44.3335 21.1156 43.9737 22.6221C43.6139 24.1293 43.434 25.6872 43.434 27.2964C43.434 28.8374 43.6139 30.3358 43.9737 31.791Z" fill="black"/>
<path d="M101.772 13.6585C101.292 12.888 100.693 12.2122 99.973 11.6296C99.2534 11.0477 98.4391 10.5942 97.5316 10.2684C96.6233 9.94327 95.6724 9.78037 94.6789 9.78037C92.8623 9.78037 91.3203 10.1319 90.0529 10.8334C88.7848 11.5356 87.7569 12.4771 86.969 13.6585C86.1804 14.84 85.6069 16.1843 85.2471 17.6908C84.8873 19.198 84.7074 20.7559 84.7074 22.3651C84.7074 23.9061 84.8873 25.4046 85.2471 26.8597C85.6069 28.3156 86.1804 29.6254 86.969 30.7892C87.7569 31.9538 88.7848 32.8872 90.0529 33.5887C91.3203 34.291 92.8623 34.6417 94.6789 34.6417C97.1461 34.6417 99.0735 33.8888 100.461 32.3816C101.849 30.8751 102.697 28.8887 103.006 26.4231H110.818C110.613 28.7177 110.081 30.7892 109.225 32.6384C108.368 34.4876 107.237 36.0631 105.833 37.3642C104.427 38.6659 102.782 39.6588 100.898 40.3434C99.0133 41.028 96.9405 41.3707 94.6789 41.3707C91.8688 41.3707 89.3414 40.8828 87.0975 39.9068C84.8528 38.9308 82.9598 37.5872 81.4178 35.8745C79.8759 34.1626 78.6937 32.1505 77.8713 29.839C77.0489 27.5275 76.6377 25.0362 76.6377 22.3651C76.6377 19.6258 77.0489 17.0832 77.8713 14.7372C78.6937 12.392 79.8759 10.3454 81.4178 8.59894C82.9598 6.85248 84.8528 5.4832 87.0975 4.48963C89.3414 3.49679 91.8688 3 94.6789 3C96.7004 3 98.611 3.29132 100.41 3.87323C102.209 4.45587 103.819 5.30342 105.241 6.41587C106.663 7.52905 107.837 8.90714 108.762 10.5509C109.688 12.1946 110.27 14.0783 110.51 16.2012H102.697C102.56 15.2766 102.251 14.429 101.772 13.6585Z" fill="black"/>
<path d="M125.673 8.80444V45.4801H117.603V8.80444H125.673Z" fill="black"/>
<path d="M152.349 2.87317L166.073 39.5488H157.695L154.919 31.3815H141.196L138.317 39.5488H130.196L144.074 2.87317H152.349ZM152.812 25.3717L148.186 11.9137H148.083L143.303 25.3717H152.812Z" fill="black"/>
<path d="M178.614 8.80444V38.6997H196.501V45.4801H170.545V8.80444H178.614Z" fill="black"/>
<path d="M48.3802 66.7873H44.7793V48.3027H50.4009L53.7639 62.8372L57.1019 48.3027H62.6612V66.7873H59.0595V54.284C59.0595 53.9244 59.0639 53.421 59.072 52.7731C59.0801 52.1251 59.0845 51.6254 59.0845 51.2747L55.5835 66.7873H51.8313L48.3552 51.2747C48.3552 51.6261 48.3596 52.1259 48.3677 52.7731C48.3758 53.421 48.3802 53.9252 48.3802 54.284V66.7873Z" fill="black"/>
<path d="M77.7218 62.9877H70.9077L69.6279 66.7873H65.5872L72.1876 48.3027H76.5543L83.1048 66.7873H78.9136L77.7218 62.9877ZM76.6424 59.8022L74.3331 52.5287L71.9489 59.8022H76.6424Z" fill="black"/>
<path d="M93.9493 59.5388H89.9585V66.7873H86.1814V48.3027H95.2541C96.5509 48.3277 97.5487 48.4869 98.247 48.779C98.9453 49.0718 99.5372 49.5025 100.023 50.0705C100.424 50.5386 100.742 51.0574 100.976 51.6254C101.211 52.1941 101.328 52.8421 101.328 53.5693C101.328 54.4469 101.106 55.3106 100.663 56.1589C100.219 57.0071 99.4872 57.6074 98.4666 57.9582C99.3198 58.3008 99.9241 58.7881 100.28 59.4192C100.636 60.0502 100.813 61.0137 100.813 62.3096V63.5512C100.813 64.3958 100.846 64.9682 100.914 65.2691C101.015 65.7453 101.249 66.0968 101.617 66.3228V66.7866H97.363C97.2455 66.3771 97.1625 66.0469 97.1119 65.7959C97.0113 65.2779 96.9569 64.7466 96.9488 64.2036L96.9239 62.4857C96.907 61.3072 96.6918 60.5213 96.2777 60.128C95.8636 59.7354 95.0875 59.5388 93.9493 59.5388ZM96.2961 56.1779C97.0656 55.8264 97.4504 55.133 97.4504 54.0961C97.4504 52.9756 97.0781 52.2235 96.3335 51.8389C95.915 51.6217 95.2879 51.5131 94.4516 51.5131H89.9593V56.4795H94.3385C95.2086 56.4788 95.8614 56.3783 96.2961 56.1779Z" fill="black"/>
<path d="M121.685 66.7872H116.715L111.005 58.7109L109.161 60.6041V66.7865H105.359V48.3019H109.161V55.9137L116.301 48.3019H121.295L113.716 55.9137L121.685 66.7872Z" fill="black"/>
<path d="M137.373 58.711H128.388V63.4639H138.628V66.7873H124.611V48.3027H138.176V51.5755H128.388V55.5006H137.373V58.711Z" fill="black"/>
<path d="M155.722 48.3019V51.5747H150.188V66.7865H146.297V51.5747H140.738V48.3019H155.722Z" fill="black"/>
</svg>
