<svg width="150" height="250" viewBox="0 0 150 250" fill="none" xmlns="http://www.w3.org/2000/svg">
<path d="M33.7811 88.0019C33.7811 90.0271 34.1467 91.7428 34.878 93.1491C35.6093 94.5555 36.5656 95.7086 37.7469 96.6087C38.9845 97.4525 40.4189 98.0994 42.0503 98.5494C43.6816 98.9432 45.3692 99.1401 47.1131 99.1401C48.2944 99.1401 49.5601 99.0557 50.9102 98.887C52.2603 98.6619 53.526 98.2682 54.7073 97.7056C55.8886 97.1431 56.873 96.3837 57.6606 95.4274C58.4481 94.4148 58.8419 93.1491 58.8419 91.6303C58.8419 89.9989 58.3075 88.677 57.2387 87.6644C56.2261 86.6519 54.8761 85.8081 53.1885 85.133C51.5009 84.458 49.5882 83.8673 47.4506 83.361C45.313 82.8548 43.1472 82.2922 40.9534 81.6734C38.7032 81.1109 36.5093 80.4359 34.3717 79.6483C32.2341 78.8045 30.3215 77.7357 28.6339 76.4419C26.9463 75.1481 25.5681 73.5448 24.4993 71.6322C23.4867 69.6634 22.9804 67.3007 22.9804 64.5443C22.9804 61.4504 23.6273 58.7783 24.9212 56.5282C26.2712 54.2218 28.0151 52.3092 30.1527 50.7904C32.2903 49.2715 34.7092 48.1465 37.4094 47.4152C40.1096 46.6839 42.8097 46.3182 45.5099 46.3182C48.6601 46.3182 51.6696 46.6839 54.5385 47.4152C57.4637 48.0902 60.0514 49.2153 62.3015 50.7904C64.5516 52.3655 66.3236 54.3906 67.6174 56.8657C68.9675 59.2846 69.6426 62.2379 69.6426 65.7256H56.8168C56.7043 63.9255 56.3105 62.4348 55.6355 61.2535C55.0167 60.0722 54.1729 59.144 53.1041 58.4689C52.0353 57.7939 50.7977 57.3157 49.3914 57.0345C48.0413 56.7532 46.5506 56.6126 44.9192 56.6126C43.8504 56.6126 42.7816 56.7251 41.7128 56.9501C40.644 57.1751 39.6595 57.5689 38.7595 58.1314C37.9157 58.694 37.2125 59.3971 36.65 60.2409C36.0874 61.0847 35.8062 62.1535 35.8062 63.4474C35.8062 64.6287 36.0312 65.585 36.4812 66.3163C36.9312 67.0476 37.8032 67.7226 39.097 68.3414C40.4471 68.9602 42.2753 69.579 44.5817 70.1978C46.9443 70.8165 50.0101 71.6041 53.7791 72.5604C54.9042 72.7854 56.4512 73.2073 58.42 73.8261C60.4451 74.3886 62.4421 75.3168 64.411 76.6106C66.3799 77.9045 68.0675 79.6483 69.4738 81.8422C70.9364 83.9798 71.6677 86.7362 71.6677 90.1114C71.6677 92.8679 71.1333 95.4274 70.0645 97.79C68.9956 100.153 67.3924 102.206 65.2548 103.95C63.1734 105.637 60.5576 106.959 57.4075 107.916C54.3135 108.872 50.7133 109.35 46.6068 109.35C43.2879 109.35 40.0533 108.928 36.9031 108.084C33.8092 107.297 31.0528 106.031 28.6339 104.287C26.2712 102.543 24.3867 100.321 22.9804 97.6213C21.5741 94.9211 20.899 91.7147 20.9553 88.0019H33.7811Z" fill="white"/>
<path d="M58.892 81.9324H77.54L91.6315 123.363H91.8002L105.132 81.9324H123.78V142.18H111.376V99.4834H111.208L96.4411 142.18H86.2312L71.4647 99.9053H71.2959V142.18H58.892V81.9324Z" fill="white"/>
<path d="M5.26611 183.62C5.79834 183.62 6.23047 183.562 6.5625 183.444C7.19238 183.22 7.50732 182.802 7.50732 182.192C7.50732 181.835 7.35107 181.56 7.03857 181.364C6.72607 181.174 6.23535 181.005 5.56641 180.859L4.42383 180.603C3.30078 180.349 2.52441 180.073 2.09473 179.775C1.36719 179.277 1.00342 178.498 1.00342 177.438C1.00342 176.472 1.35498 175.668 2.05811 175.029C2.76123 174.389 3.79395 174.069 5.15625 174.069C6.29395 174.069 7.26318 174.372 8.06396 174.978C8.86963 175.578 9.29199 176.452 9.33105 177.6H7.16309C7.12402 176.95 6.84082 176.489 6.31348 176.215C5.96191 176.035 5.5249 175.944 5.00244 175.944C4.42139 175.944 3.95752 176.062 3.61084 176.296C3.26416 176.53 3.09082 176.857 3.09082 177.277C3.09082 177.663 3.26172 177.951 3.60352 178.142C3.82324 178.269 4.29199 178.417 5.00977 178.588L6.87012 179.035C7.68555 179.23 8.30078 179.492 8.71582 179.819C9.36035 180.327 9.68262 181.062 9.68262 182.023C9.68262 183.01 9.3042 183.83 8.54736 184.484C7.79541 185.134 6.73096 185.458 5.354 185.458C3.94775 185.458 2.8418 185.139 2.03613 184.499C1.23047 183.854 0.827637 182.971 0.827637 181.848H2.98096C3.04932 182.341 3.18359 182.709 3.38379 182.954C3.75 183.398 4.37744 183.62 5.26611 183.62ZM17.8418 178.208C18.5156 179.052 18.8525 180.051 18.8525 181.203C18.8525 182.375 18.5156 183.378 17.8418 184.213C17.168 185.043 16.145 185.458 14.7729 185.458C13.4009 185.458 12.3779 185.043 11.7041 184.213C11.0303 183.378 10.6934 182.375 10.6934 181.203C10.6934 180.051 11.0303 179.052 11.7041 178.208C12.3779 177.363 13.4009 176.94 14.7729 176.94C16.145 176.94 17.168 177.363 17.8418 178.208ZM14.7656 178.706C14.1553 178.706 13.6841 178.923 13.3521 179.357C13.0249 179.787 12.8613 180.402 12.8613 181.203C12.8613 182.004 13.0249 182.622 13.3521 183.056C13.6841 183.491 14.1553 183.708 14.7656 183.708C15.376 183.708 15.8447 183.491 16.1719 183.056C16.499 182.622 16.6626 182.004 16.6626 181.203C16.6626 180.402 16.499 179.787 16.1719 179.357C15.8447 178.923 15.376 178.706 14.7656 178.706ZM27.2607 180.061H25.1221C25.083 179.763 24.9829 179.494 24.8218 179.255C24.5874 178.933 24.2236 178.771 23.7305 178.771C23.0273 178.771 22.5464 179.121 22.2876 179.819C22.1509 180.19 22.0825 180.683 22.0825 181.298C22.0825 181.884 22.1509 182.355 22.2876 182.712C22.5366 183.376 23.0054 183.708 23.6938 183.708C24.1821 183.708 24.5288 183.576 24.7339 183.312C24.939 183.049 25.0635 182.707 25.1074 182.287H27.2388C27.1899 182.922 26.9604 183.522 26.5503 184.089C25.896 185.002 24.9268 185.458 23.6426 185.458C22.3584 185.458 21.4136 185.078 20.8081 184.316C20.2026 183.554 19.8999 182.565 19.8999 181.35C19.8999 179.978 20.2344 178.911 20.9033 178.149C21.5723 177.387 22.4951 177.006 23.6719 177.006C24.6729 177.006 25.4907 177.231 26.1255 177.68C26.7651 178.129 27.1436 178.923 27.2607 180.061ZM30.8496 177.197V185.18H28.7329V177.197H30.8496ZM30.8496 174.318V176.245H28.7329V174.318H30.8496ZM33.1787 178.061C33.7305 177.358 34.6777 177.006 36.0205 177.006C36.8945 177.006 37.6709 177.18 38.3496 177.526C39.0283 177.873 39.3677 178.527 39.3677 179.489V183.151C39.3677 183.405 39.3726 183.713 39.3823 184.074C39.397 184.348 39.4385 184.533 39.5068 184.631C39.5752 184.729 39.6777 184.809 39.8145 184.873V185.18H37.5439C37.4805 185.019 37.4365 184.868 37.4121 184.726C37.3877 184.584 37.3682 184.423 37.3535 184.243C37.0654 184.555 36.7334 184.821 36.3574 185.041C35.9082 185.3 35.4004 185.429 34.834 185.429C34.1113 185.429 33.5132 185.224 33.0396 184.814C32.5708 184.399 32.3364 183.813 32.3364 183.056C32.3364 182.075 32.7148 181.364 33.4717 180.925C33.8867 180.686 34.4971 180.515 35.3027 180.412L36.0132 180.324C36.3989 180.275 36.6748 180.214 36.8408 180.141C37.1387 180.014 37.2876 179.816 37.2876 179.548C37.2876 179.221 37.1729 178.996 36.9434 178.874C36.7188 178.747 36.3867 178.684 35.9473 178.684C35.4541 178.684 35.105 178.806 34.8999 179.05C34.7534 179.23 34.6558 179.475 34.6069 179.782H32.5928C32.6367 179.084 32.832 178.51 33.1787 178.061ZM34.7314 183.671C34.9268 183.833 35.166 183.913 35.4492 183.913C35.8984 183.913 36.311 183.781 36.687 183.518C37.0679 183.254 37.2656 182.773 37.2803 182.075V181.298C37.1484 181.381 37.0142 181.45 36.8774 181.503C36.7456 181.552 36.5625 181.599 36.3281 181.643L35.8594 181.73C35.4199 181.809 35.105 181.904 34.9146 182.016C34.5923 182.207 34.4312 182.502 34.4312 182.902C34.4312 183.259 34.5312 183.515 34.7314 183.671ZM41.272 174.384H43.3594V185.18H41.272V174.384ZM51.8115 185.18H49.7095V174.384H52.9907L54.9536 182.873L56.9019 174.384H60.1465V185.18H58.0444V177.878C58.0444 177.668 58.0469 177.375 58.0518 176.999C58.0566 176.618 58.0591 176.325 58.0591 176.12L56.0156 185.18H53.8257L51.7969 176.12C51.7969 176.325 51.7993 176.618 51.8042 176.999C51.8091 177.375 51.8115 177.668 51.8115 177.878V185.18ZM62.373 178.061C62.9248 177.358 63.8721 177.006 65.2148 177.006C66.0889 177.006 66.8652 177.18 67.5439 177.526C68.2227 177.873 68.562 178.527 68.562 179.489V183.151C68.562 183.405 68.5669 183.713 68.5767 184.074C68.5913 184.348 68.6328 184.533 68.7012 184.631C68.7695 184.729 68.8721 184.809 69.0088 184.873V185.18H66.7383C66.6748 185.019 66.6309 184.868 66.6064 184.726C66.582 184.584 66.5625 184.423 66.5479 184.243C66.2598 184.555 65.9277 184.821 65.5518 185.041C65.1025 185.3 64.5947 185.429 64.0283 185.429C63.3057 185.429 62.7075 185.224 62.2339 184.814C61.7651 184.399 61.5308 183.813 61.5308 183.056C61.5308 182.075 61.9092 181.364 62.666 180.925C63.0811 180.686 63.6914 180.515 64.4971 180.412L65.2075 180.324C65.5933 180.275 65.8691 180.214 66.0352 180.141C66.333 180.014 66.4819 179.816 66.4819 179.548C66.4819 179.221 66.3672 178.996 66.1377 178.874C65.9131 178.747 65.5811 178.684 65.1416 178.684C64.6484 178.684 64.2993 178.806 64.0942 179.05C63.9478 179.23 63.8501 179.475 63.8013 179.782H61.7871C61.8311 179.084 62.0264 178.51 62.373 178.061ZM63.9258 183.671C64.1211 183.833 64.3604 183.913 64.6436 183.913C65.0928 183.913 65.5054 183.781 65.8813 183.518C66.2622 183.254 66.46 182.773 66.4746 182.075V181.298C66.3428 181.381 66.2085 181.45 66.0718 181.503C65.9399 181.552 65.7568 181.599 65.5225 181.643L65.0537 181.73C64.6143 181.809 64.2993 181.904 64.1089 182.016C63.7866 182.207 63.6255 182.502 63.6255 182.902C63.6255 183.259 63.7256 183.515 63.9258 183.671ZM74.436 179.123C73.5962 179.123 73.0322 179.396 72.7441 179.943C72.583 180.251 72.5024 180.725 72.5024 181.364V185.18H70.4004V177.197H72.3926V178.588C72.7148 178.056 72.9956 177.692 73.2349 177.497C73.6255 177.17 74.1333 177.006 74.7583 177.006C74.7974 177.006 74.8291 177.009 74.8535 177.014C74.8828 177.014 74.9438 177.016 75.0366 177.021V179.16C74.9048 179.145 74.7876 179.135 74.6851 179.13C74.5825 179.125 74.4995 179.123 74.436 179.123ZM83.5913 185.18H81.0718L79.1602 181.767L78.2959 182.668V185.18H76.2451V174.421H78.2959V180.236L80.896 177.233H83.4814L80.6909 180.288L83.5913 185.18ZM91.4502 182.836C91.3965 183.31 91.1499 183.791 90.7104 184.279C90.0269 185.056 89.0698 185.444 87.8394 185.444C86.8237 185.444 85.9277 185.117 85.1514 184.462C84.375 183.808 83.9868 182.744 83.9868 181.269C83.9868 179.887 84.3359 178.828 85.0342 178.09C85.7373 177.353 86.6479 176.984 87.7661 176.984C88.4302 176.984 89.0283 177.109 89.5605 177.358C90.0928 177.607 90.5322 178 90.8789 178.537C91.1914 179.011 91.394 179.56 91.4868 180.185C91.5405 180.551 91.5625 181.079 91.5527 181.767H86.0889C86.1182 182.568 86.3696 183.129 86.8433 183.452C87.1313 183.652 87.478 183.752 87.8833 183.752C88.313 183.752 88.6621 183.63 88.9307 183.386C89.0771 183.254 89.2065 183.071 89.3188 182.836H91.4502ZM89.3848 180.39C89.3506 179.838 89.1821 179.421 88.8794 179.138C88.5815 178.85 88.2104 178.706 87.7661 178.706C87.2827 178.706 86.9067 178.857 86.6382 179.16C86.3745 179.462 86.2085 179.873 86.1401 180.39H89.3848ZM96.6211 183.693V185.253L95.6323 185.29C94.646 185.324 93.9722 185.153 93.6108 184.777C93.3765 184.538 93.2593 184.169 93.2593 183.671V178.757H92.146V177.27H93.2593V175.043H95.3247V177.27H96.6211V178.757H95.3247V182.976C95.3247 183.303 95.3662 183.508 95.4492 183.591C95.5322 183.669 95.7861 183.708 96.2109 183.708C96.2744 183.708 96.3403 183.708 96.4087 183.708C96.4819 183.703 96.5527 183.698 96.6211 183.693ZM102.913 183.62C101.873 182.58 101.353 181.301 101.353 179.782C101.353 178.205 101.914 176.894 103.037 175.849C104.092 174.873 105.33 174.384 106.75 174.384C108.24 174.384 109.512 174.912 110.566 175.966C111.621 177.021 112.148 178.293 112.148 179.782C112.148 181.315 111.609 182.607 110.53 183.657C109.48 184.672 108.22 185.18 106.75 185.18C105.232 185.18 103.953 184.66 102.913 183.62ZM103.579 176.655C102.72 177.534 102.29 178.576 102.29 179.782C102.29 181.032 102.727 182.094 103.601 182.968C104.47 183.842 105.52 184.279 106.75 184.279C107.976 184.279 109.023 183.84 109.893 182.961C110.762 182.077 111.196 181.018 111.196 179.782C111.196 178.581 110.764 177.539 109.9 176.655C109.026 175.756 107.976 175.307 106.75 175.307C105.51 175.307 104.453 175.756 103.579 176.655ZM104.634 177.526C105.146 176.901 105.852 176.589 106.75 176.589C107.322 176.589 107.817 176.706 108.237 176.94C108.921 177.321 109.346 177.988 109.512 178.94L108.135 178.918C108.052 178.479 107.876 178.183 107.607 178.032C107.383 177.89 107.136 177.819 106.868 177.819C106.462 177.819 106.13 177.988 105.872 178.325C105.613 178.657 105.483 179.16 105.483 179.833C105.483 180.502 105.625 180.988 105.908 181.291C106.196 181.594 106.541 181.745 106.941 181.745C107.307 181.745 107.583 181.645 107.769 181.445C107.959 181.245 108.081 180.993 108.135 180.69H109.475C109.329 181.54 108.997 182.136 108.479 182.478C107.966 182.814 107.434 182.983 106.882 182.983C106.062 182.983 105.352 182.69 104.751 182.104C104.155 181.518 103.857 180.749 103.857 179.797C103.857 178.908 104.116 178.151 104.634 177.526ZM121.611 176.721C121.362 176.423 121.006 176.274 120.542 176.274C119.907 176.274 119.475 176.511 119.246 176.984C119.114 177.258 119.036 177.692 119.011 178.288H116.982C117.017 177.385 117.18 176.655 117.473 176.098C118.03 175.039 119.019 174.509 120.439 174.509C121.562 174.509 122.456 174.821 123.12 175.446C123.784 176.066 124.116 176.889 124.116 177.915C124.116 178.701 123.882 179.399 123.413 180.009C123.105 180.415 122.6 180.866 121.897 181.364L121.062 181.958C120.54 182.329 120.181 182.597 119.985 182.763C119.795 182.929 119.634 183.122 119.502 183.342H124.138V185.18H116.865C116.885 184.418 117.048 183.723 117.356 183.093C117.654 182.385 118.357 181.635 119.465 180.844C120.427 180.156 121.05 179.663 121.333 179.365C121.768 178.901 121.985 178.393 121.985 177.841C121.985 177.392 121.86 177.019 121.611 176.721ZM128.877 185.444C127.524 185.444 126.575 184.97 126.028 184.023C125.486 183.076 125.215 181.726 125.215 179.973C125.215 178.22 125.486 176.867 126.028 175.915C126.575 174.963 127.524 174.487 128.877 174.487C130.229 174.487 131.179 174.963 131.726 175.915C132.268 176.867 132.539 178.22 132.539 179.973C132.539 181.726 132.266 183.076 131.719 184.023C131.177 184.97 130.229 185.444 128.877 185.444ZM130.1 182.771C130.291 182.126 130.386 181.193 130.386 179.973C130.386 178.693 130.288 177.746 130.093 177.131C129.902 176.516 129.497 176.208 128.877 176.208C128.257 176.208 127.847 176.516 127.646 177.131C127.446 177.746 127.346 178.693 127.346 179.973C127.346 181.193 127.446 182.128 127.646 182.778C127.847 183.422 128.257 183.745 128.877 183.745C129.497 183.745 129.905 183.42 130.1 182.771ZM138.311 176.721C138.062 176.423 137.705 176.274 137.241 176.274C136.606 176.274 136.174 176.511 135.945 176.984C135.813 177.258 135.735 177.692 135.71 178.288H133.682C133.716 177.385 133.879 176.655 134.172 176.098C134.729 175.039 135.718 174.509 137.139 174.509C138.262 174.509 139.155 174.821 139.819 175.446C140.483 176.066 140.815 176.889 140.815 177.915C140.815 178.701 140.581 179.399 140.112 180.009C139.805 180.415 139.299 180.866 138.596 181.364L137.761 181.958C137.239 182.329 136.88 182.597 136.685 182.763C136.494 182.929 136.333 183.122 136.201 183.342H140.837V185.18H133.564C133.584 184.418 133.748 183.723 134.055 183.093C134.353 182.385 135.056 181.635 136.165 180.844C137.126 180.156 137.749 179.663 138.032 179.365C138.467 178.901 138.684 178.393 138.684 177.841C138.684 177.392 138.56 177.019 138.311 176.721ZM149.29 181.262V182.895H148.088V185.18H146.045V182.895H141.841V181.071L145.745 174.626H148.088V181.262H149.29ZM143.386 181.262H146.045V176.677L143.386 181.262Z" fill="white"/>
</svg>
