<svg width="227" height="52" viewBox="0 0 227 52" fill="none" xmlns="http://www.w3.org/2000/svg">
<path d="M149.967 1.2946C150.128 1.27349 150.22 1.25238 150.304 1.25238C152.886 1.25942 155.461 1.24535 158.043 1.28053C161.336 1.3157 163.643 3.23634 164.41 6.43038C165.071 9.16712 164.959 11.8757 163.805 14.4717C162.715 16.9411 160.801 18.3552 158.071 18.4397C155.475 18.5241 152.872 18.4819 150.269 18.4959C150.185 18.4959 150.093 18.4608 149.967 18.4326C149.967 12.727 149.967 7.03542 149.967 1.2946ZM153.548 4.19315C153.548 8.03443 153.548 11.735 153.548 15.4848C154.779 15.4848 155.961 15.527 157.143 15.4708C158.859 15.3934 159.985 14.4647 160.541 12.8607C161.265 10.7712 161.237 8.65354 160.632 6.54294C160.252 5.21327 159.338 4.43938 157.973 4.33385C156.523 4.22129 155.067 4.23536 153.548 4.19315ZM41.489 18.4537C41.1232 17.2999 40.7644 16.1673 40.3915 15.0064C38.2387 15.0064 36.107 15.0064 33.8909 15.0064C33.4828 16.1462 33.0677 17.314 32.6527 18.4608C31.337 18.4608 30.1129 18.4608 28.8184 18.4608C30.9149 12.7129 32.9833 7.02838 35.0728 1.2946C36.4236 1.2946 37.7884 1.2946 39.2096 1.2946C39.4347 1.82928 39.688 2.37804 39.899 2.95493C40.8699 5.65649 41.8126 8.37212 42.7835 11.0807C43.5855 13.3109 44.4016 15.5341 45.2107 17.7643C45.2881 17.9753 45.3444 18.1864 45.4218 18.4608C44.0991 18.4537 42.8328 18.4537 41.489 18.4537ZM39.2799 11.9531C38.5975 9.72994 37.9151 7.55603 37.1412 5.40322C36.3954 7.59121 35.509 9.70884 34.904 11.9531C36.3814 11.9531 37.7884 11.9531 39.2799 11.9531ZM156.376 37.5617C156.566 37.4491 156.643 37.4139 156.713 37.3576C159.633 34.9586 164.164 36.5978 164.888 40.3336C165.233 42.0854 164.952 43.7316 164.037 45.2724C163.376 46.391 162.412 47.1015 161.167 47.4392C160.027 47.7488 158.866 47.8192 157.712 47.5588C156.137 47.2 154.948 46.3066 154.188 44.8714C153.625 43.809 153.308 42.6693 153.203 41.4803C153.006 39.2712 153.006 37.0551 153.576 34.8882C153.716 34.3395 153.92 33.7978 154.174 33.2912C155.257 31.1525 157.016 30.0972 159.415 30.1324C160.407 30.1464 161.371 30.3293 162.257 30.8007C163.728 31.5816 164.466 32.841 164.649 34.5224C163.517 34.5224 162.44 34.5224 161.357 34.5224C161.329 34.4872 161.279 34.4591 161.272 34.4169C161.054 33.6008 160.583 33.0379 159.703 32.9113C158.747 32.7776 157.916 33.0239 157.382 33.8681C157.129 34.2621 156.924 34.7194 156.812 35.1767C156.622 35.9224 156.531 36.6893 156.376 37.5617ZM156.481 41.804C156.516 42.9296 156.819 43.7457 157.473 44.3507C158.683 45.4764 160.576 45.1176 161.237 43.612C161.701 42.5638 161.694 41.4803 161.272 40.418C160.864 39.3979 159.964 38.8843 158.817 38.9476C157.79 39.0039 156.981 39.6441 156.678 40.6642C156.573 41.0301 156.545 41.424 156.481 41.804ZM204.04 34.5435C202.9 34.5435 201.831 34.5435 200.74 34.5435C200.712 34.4661 200.663 34.3887 200.642 34.3043C200.417 33.5304 199.91 33.0591 199.108 32.9254C198.236 32.7776 197.434 32.9606 196.913 33.7063C196.554 34.2199 196.259 34.8108 196.076 35.4088C195.879 36.0561 195.844 36.7526 195.724 37.5546C196.034 37.3436 196.252 37.2169 196.456 37.0621C197.891 35.9365 200.649 35.9928 202.253 37.1958C203.618 38.223 204.364 39.5738 204.392 41.2833C204.399 42.0291 204.371 42.803 204.181 43.5206C203.541 45.9478 201.81 47.6222 198.869 47.7136C196.083 47.798 194.289 46.6654 193.241 44.1397C192.713 42.8733 192.453 41.5718 192.439 40.214C192.425 38.6873 192.383 37.1466 192.734 35.648C193.009 34.4943 193.396 33.3686 194.099 32.3907C195.246 30.8007 196.836 30.1042 198.771 30.1535C199.622 30.1746 200.466 30.259 201.24 30.6319C202.858 31.3917 203.878 32.6088 204.04 34.5435ZM195.858 41.8251C195.865 43.1477 196.132 43.6331 196.906 44.3789C197.969 45.399 200.03 45.1809 200.663 43.5698C201.064 42.5567 201.092 41.5225 200.705 40.5024C200.051 38.8069 197.863 38.3989 196.597 39.7004C196.02 40.3054 195.844 41.023 195.858 41.8251ZM98.9746 33.9877C98.9605 31.863 100.642 30.1957 102.802 30.1886C104.955 30.1816 106.664 31.856 106.664 33.9596C106.664 36.028 104.969 37.7164 102.865 37.7375C100.719 37.7586 98.9887 36.0842 98.9746 33.9877ZM102.837 32.0882C101.796 32.0811 100.874 32.9676 100.881 33.9666C100.888 34.9375 101.796 35.8169 102.788 35.8239C103.85 35.838 104.715 34.9938 104.765 33.9807C104.814 32.9395 103.688 32.0178 102.837 32.0882ZM205.869 33.9666C205.729 31.9545 207.881 30.1535 209.739 30.1605C211.941 30.1675 213.643 32.257 213.629 33.9736C213.615 35.641 212.004 37.7305 209.76 37.7516C207.846 37.7727 205.75 35.9506 205.869 33.9666ZM209.753 35.8239C210.85 35.8169 211.666 35.0008 211.652 33.9314C211.645 32.8621 210.808 32.0741 209.703 32.0882C208.655 32.1022 207.832 32.9113 207.825 33.9455C207.818 35.0008 208.669 35.831 209.753 35.8239ZM118.371 1.30163C118.519 1.28053 118.624 1.24535 118.737 1.24535C121.727 1.25238 124.717 1.25238 127.707 1.28756C128.227 1.2946 128.762 1.36495 129.262 1.51269C132.561 2.48356 133.708 6.17711 131.886 8.89274C131.583 9.343 131.042 9.63145 130.598 9.98321C130.465 10.0887 130.296 10.1521 130.106 10.2576C130.359 10.4124 130.584 10.532 130.788 10.6656C131.569 11.1863 132.076 11.8898 132.153 12.8466C132.216 13.5712 132.245 14.3029 132.273 15.0275C132.294 15.527 132.28 16.0336 132.301 16.5331C132.315 17.0467 132.442 17.518 132.821 17.905C132.934 18.0175 132.969 18.2005 133.047 18.3552C132.477 18.5171 129.909 18.5452 129.015 18.4256C128.734 17.8065 128.657 17.1311 128.621 16.4487C128.586 15.8085 128.607 15.1682 128.579 14.5351C128.565 14.127 128.53 13.7119 128.453 13.3109C128.312 12.537 127.84 12.0586 127.088 11.8616C126.82 11.7913 126.546 11.735 126.279 11.735C124.865 11.7209 123.45 11.728 121.945 11.728C121.945 13.9652 121.945 16.1884 121.945 18.4397C120.7 18.4397 119.546 18.4397 118.378 18.4397C118.371 12.7129 118.371 7.01431 118.371 1.30163ZM121.959 8.8646C122.578 8.8646 123.148 8.87163 123.718 8.8646C124.766 8.85756 125.814 8.87163 126.863 8.82942C127.531 8.80128 128.185 8.6254 128.635 8.07664C129.255 7.32386 129.184 5.64946 128.509 4.93889C128.403 4.82633 128.27 4.70673 128.129 4.65748C127.7 4.50974 127.264 4.31275 126.827 4.29164C125.301 4.23536 123.774 4.24943 122.247 4.24239C122.163 4.24239 122.079 4.28461 121.959 4.31275C121.959 5.7972 121.959 7.27462 121.959 8.8646ZM115.937 9.68773C115.902 11.4184 115.768 12.9943 115.057 14.4366C113.896 16.8004 112.117 18.4115 109.422 18.8266C107.776 19.0799 106.151 19.0377 104.54 18.5874C103.709 18.3552 102.957 17.9964 102.295 17.4618C100.79 16.2446 99.7696 14.725 99.3756 12.8114C98.8902 10.4686 98.862 8.12589 99.6781 5.86052C100.572 3.36298 102.295 1.66747 104.926 1.02725C106.777 0.576994 108.627 0.619206 110.477 1.12575C111.955 1.52676 113.059 2.42025 114.023 3.55997C115.142 4.88261 115.634 6.45148 115.831 8.13293C115.895 8.68871 115.909 9.25858 115.937 9.68773ZM102.689 9.77919C102.696 11.0385 102.844 12.2275 103.365 13.3531C103.934 14.5843 104.891 15.4074 106.193 15.7451C108.803 16.4346 111.04 15.1471 111.835 12.727C112.454 10.8415 112.412 8.91385 111.856 7.00024C111.673 6.38113 111.329 5.86052 110.935 5.3399C109.098 2.9479 104.708 3.22931 103.329 6.41631C102.851 7.50678 102.71 8.65354 102.689 9.77919ZM196.02 1.28756C196.167 1.27349 196.273 1.24535 196.386 1.24535C199.01 1.25238 201.641 1.22424 204.265 1.2946C205.074 1.3157 205.897 1.51269 206.671 1.75189C207.649 2.05441 208.43 2.70166 209.063 3.51072C210.048 4.76301 210.618 6.17711 210.801 7.76005C211.012 9.59627 210.963 11.4184 210.4 13.1843C209.837 14.9572 208.93 16.5331 207.29 17.5462C206.172 18.2356 204.919 18.4819 203.625 18.4889C201.184 18.503 198.735 18.4959 196.294 18.4959C196.231 18.4959 196.16 18.4678 196.104 18.4537C195.935 17.9542 195.865 2.93383 196.02 1.28756ZM199.587 15.52C201.106 15.4497 202.584 15.6537 204.047 15.3652C204.687 15.2386 205.271 14.929 205.658 14.4014C206.059 13.8597 206.495 13.2898 206.699 12.6566C207.368 10.6586 207.354 8.61133 206.742 6.59923C206.326 5.23437 205.363 4.43235 203.899 4.29868C203.695 4.27757 203.491 4.25646 203.287 4.24943C202.169 4.23536 201.05 4.23536 199.931 4.23536C199.819 4.23536 199.713 4.27054 199.573 4.29164C199.587 8.02036 199.587 11.728 199.587 15.52ZM84.8125 1.28053C86.107 1.28053 87.3593 1.28053 88.6538 1.28053C89.5121 5.35397 90.3704 9.40632 91.2287 13.4587C91.6367 12.4878 91.7634 11.4606 92.0026 10.4616C92.2488 9.44149 92.474 8.41434 92.7132 7.39422C92.9453 6.3952 93.1704 5.39619 93.4026 4.39014C93.6418 3.37001 93.881 2.35693 94.1343 1.28756C95.3866 1.1961 96.6107 1.25238 97.9123 1.24535C96.2449 7.03542 94.6057 12.734 92.9594 18.4608C91.7704 18.4608 90.6377 18.4608 89.4347 18.4608C88.9844 16.2939 88.5342 14.127 88.0839 11.9742C87.6337 9.8214 87.1764 7.67563 86.6346 5.51579C85.7623 9.81437 84.8828 14.1129 83.9964 18.4467C82.8285 18.4467 81.6958 18.4467 80.5139 18.4467C80.4506 18.2638 80.3802 18.0809 80.324 17.8909C79.3249 14.3803 78.333 10.8697 77.3269 7.35904C76.8204 5.58614 76.2786 3.82028 75.758 2.04738C75.6877 1.81521 75.6314 1.57601 75.554 1.28756C76.8696 1.28756 78.1219 1.28756 79.4375 1.28756C80.3873 5.3188 81.3441 9.343 82.322 13.5009C82.7511 11.3903 83.1099 9.37114 83.525 7.35904C83.9331 5.35397 84.3693 3.34891 84.8125 1.28053ZM179.409 18.4678C178.516 14.12 177.636 9.82844 176.75 5.52986C176.722 5.52282 176.701 5.52282 176.673 5.51579C175.765 9.8214 174.858 14.134 173.95 18.4678C172.824 18.4678 171.734 18.4678 170.587 18.4678C170.531 18.3271 170.446 18.1723 170.397 18.0035C170.038 16.7512 169.687 15.5059 169.328 14.2537C168.181 10.2646 167.027 6.28264 165.873 2.30065C165.782 1.97702 165.669 1.66747 165.543 1.28756C166.887 1.28756 168.16 1.28756 169.497 1.28756C170.418 5.36804 171.34 9.42742 172.297 13.6205C173.225 9.47667 173.901 5.38212 174.773 1.2946C176.068 1.2946 177.334 1.2946 178.671 1.2946C179.536 5.37508 180.401 9.44149 181.274 13.5712C182.252 9.44853 183.208 5.39619 184.179 1.30163C185.389 1.30163 186.585 1.30163 187.788 1.30163C187.781 1.89963 183.398 17.4125 182.934 18.4678C181.808 18.4678 180.676 18.4678 179.409 18.4678ZM56.9597 18.503C55.9396 18.503 55.025 18.503 54.1174 18.503C53.9415 18.503 53.7586 18.4748 53.5475 18.4537C53.5475 12.727 53.5475 7.03542 53.5475 1.30867C53.7023 1.28756 53.829 1.25238 53.9626 1.25238C54.9405 1.24535 55.9255 1.25942 56.9104 1.24535C57.2481 1.23831 57.4803 1.34384 57.6069 1.66043C57.621 1.70264 57.6491 1.73782 57.6702 1.78003C59.4924 4.93889 61.3145 8.09775 63.1508 11.2566C63.4884 11.8405 63.8684 12.3963 64.2975 13.0858C64.4241 12.1993 64.3538 11.4395 64.3679 10.6797C64.3819 9.90582 64.3679 9.1249 64.3679 8.35102C64.3679 7.55603 64.3679 6.754 64.3679 5.95198C64.3679 5.17809 64.3679 4.39717 64.3679 3.62329C64.3679 2.85644 64.3679 2.08255 64.3679 1.28756C65.5428 1.28756 66.6332 1.28756 67.7589 1.28756C67.7589 7.02134 67.7589 12.7129 67.7589 18.4256C67.6252 18.4537 67.5197 18.4889 67.4071 18.4889C66.4503 18.4959 65.4865 18.4819 64.5297 18.4959C64.2412 18.503 64.0724 18.3904 63.9246 18.1442C63.4884 17.3984 63.0241 16.6668 62.5879 15.921C60.8291 12.9099 59.0773 9.89175 57.3185 6.88064C57.2411 6.74697 57.1496 6.62737 56.9597 6.52184C56.9597 10.4827 56.9597 14.4366 56.9597 18.503ZM216.978 4.31275C216.978 5.56503 216.978 6.72586 216.978 7.95001C219.792 7.95001 222.571 7.95001 225.441 7.95001C225.484 8.95606 225.456 9.90582 225.463 10.933C224.02 10.9752 222.606 10.9471 221.199 10.9541C219.813 10.9611 218.427 10.9541 216.985 10.9541C216.985 12.4456 216.985 13.8737 216.985 15.3863C220.172 15.3863 223.352 15.3863 226.574 15.3863C226.574 16.4416 226.574 17.4125 226.574 18.3834C226.046 18.5382 213.953 18.5522 213.306 18.3975C213.306 12.727 213.306 7.04949 213.306 1.37198C213.812 1.21017 224.442 1.13982 226.166 1.28756C226.173 1.76596 226.187 2.25843 226.194 2.75091C226.201 3.22931 226.194 3.70771 226.194 4.27054C223.113 4.33385 220.066 4.27054 216.978 4.31275ZM14.5789 6.34595C13.3759 6.34595 12.2643 6.34595 11.1105 6.34595C11.0753 6.19118 11.0331 6.04344 10.9979 5.89569C10.801 4.96703 10.2592 4.32682 9.36575 4.03133C8.09236 3.60922 6.80489 3.567 5.56668 4.15797C5.25009 4.30571 4.94054 4.55195 4.73651 4.83336C4.06816 5.76906 4.41992 6.97913 5.51743 7.34497C6.63605 7.71784 7.80391 7.97111 8.94363 8.2877C10.0834 8.59726 11.2512 8.85053 12.3628 9.25154C14.1076 9.87065 15.001 11.1792 15.1417 13.0295C15.3247 15.513 13.9528 17.701 11.1527 18.5311C8.95067 19.1854 6.72047 19.1362 4.55359 18.3904C2.97768 17.8417 1.68318 16.8849 1.08518 15.2245C0.860051 14.6054 0.71231 13.9652 0.768592 13.2406C1.91535 13.2406 3.041 13.2406 4.2159 13.2406C4.26514 13.4164 4.32143 13.6064 4.37067 13.7964C4.5958 14.8024 5.19381 15.4567 6.18579 15.7451C7.51546 16.125 8.85217 16.118 10.1607 15.6959C11.1175 15.3863 11.5819 14.725 11.61 13.8315C11.6311 13.1772 11.3779 12.6496 10.7869 12.3752C10.2311 12.1149 9.6542 11.8898 9.06323 11.742C7.87426 11.4325 6.66419 11.2003 5.46818 10.9048C4.87018 10.7571 4.28625 10.5601 3.71639 10.3279C2.15455 9.68069 1.22589 8.53394 1.05704 6.82436C0.979652 6.06454 1.0289 5.3188 1.24699 4.58712C1.73947 2.95493 2.87215 1.8926 4.41289 1.3157C6.48127 0.548853 8.62001 0.499605 10.7165 1.23831C11.399 1.47751 12.0603 1.83632 12.6372 2.25843C13.9739 3.23634 14.5226 4.65044 14.5789 6.34595ZM182.751 40.0311C181.752 39.9818 180.774 39.9326 179.74 39.8763C180.141 36.7385 180.528 33.6641 180.929 30.5474C184.109 30.5474 187.254 30.5474 190.476 30.5474C190.483 30.9836 190.497 31.4269 190.504 31.8771C190.511 32.3274 190.504 32.7847 190.504 33.3334C189.28 33.3405 188.105 33.3405 186.93 33.3475C185.769 33.3475 184.608 33.3475 183.412 33.3475C183.215 34.5646 183.026 35.7184 182.822 36.9777C183.04 36.8792 183.138 36.837 183.237 36.7878C185.277 35.7114 187.226 35.9365 189.104 37.2029C190.75 38.3144 191.179 39.9748 191.13 41.804C191.116 42.5216 190.982 43.2673 190.736 43.9427C189.836 46.3628 188.028 47.5729 185.467 47.7066C184.454 47.7629 183.455 47.6503 182.498 47.2985C181.07 46.7779 180.036 45.8282 179.543 44.3648C179.374 43.8583 179.121 43.3588 179.184 42.7537C180.296 42.7537 181.386 42.7537 182.477 42.7537C182.625 43.0844 182.751 43.401 182.899 43.7105C183.652 45.2864 185.98 45.4834 187 44.0482C187.831 42.8874 187.817 40.7698 186.916 39.6582C186.684 39.3697 186.332 39.1305 185.987 39.0109C184.742 38.5607 183.673 38.9124 182.751 40.0311ZM26.6304 42.7608C27.6928 42.7608 28.7551 42.7608 29.9018 42.7608C29.9581 42.9296 30.0285 43.1407 30.0988 43.3517C30.4717 44.4352 31.1401 44.9558 32.2024 44.998C33.3984 45.0402 34.2215 44.5618 34.6436 43.4995C35.115 42.3175 35.0658 41.1356 34.4818 39.9959C34.1301 39.3064 33.5461 38.9406 32.7934 38.8702C31.7029 38.7647 30.739 38.9898 30.134 40.0381C29.1209 39.9888 28.1289 39.9396 27.0807 39.8904C27.4817 36.7456 27.8686 33.6711 28.2696 30.5615C31.4496 30.5615 34.5874 30.5615 37.8166 30.5615C37.8236 30.9977 37.8377 31.4409 37.8447 31.8842C37.8517 32.3344 37.8447 32.7917 37.8447 33.3475C36.6276 33.3545 35.4457 33.3545 34.2708 33.3616C33.1099 33.3616 31.9491 33.3616 30.7531 33.3616C30.5561 34.5716 30.3662 35.7325 30.1621 36.9848C30.3943 36.8792 30.5209 36.837 30.6265 36.7667C32.1954 35.7395 35.0728 35.8873 36.9301 37.5617C37.5 38.0752 37.9151 38.7014 38.1472 39.4331C38.6678 41.0793 38.6327 42.7185 37.9432 44.3156C36.9934 46.5106 35.2416 47.5588 32.9059 47.7066C31.6818 47.784 30.4998 47.587 29.3672 47.1016C27.9953 46.5035 26.546 44.8502 26.6304 42.7608ZM13.988 39.8763C14.389 36.7385 14.7759 33.6711 15.1629 30.6108C15.6905 30.4701 23.5489 30.4278 24.7098 30.5545C24.7168 30.9836 24.7309 31.4339 24.7309 31.8771C24.7309 32.3344 24.7309 32.7847 24.7309 33.3123C22.3741 33.3123 20.0524 33.3123 17.6745 33.3123C17.4704 34.5294 17.2805 35.6903 17.0624 36.9637C17.3508 36.8229 17.5619 36.7315 17.7659 36.6189C19.8836 35.4651 23.95 36.1827 25.0193 39.3416C25.8214 41.7125 25.4485 43.9357 23.8444 45.9055C23.0846 46.8342 22.0575 47.3126 20.9107 47.5377C19.1097 47.8965 17.3649 47.7488 15.7468 46.785C14.2483 45.8915 13.6292 44.4844 13.4533 42.7537C14.6 42.7537 15.6835 42.7537 16.8091 42.7537C16.9006 43.0211 16.992 43.3025 17.0976 43.5698C17.4282 44.4141 18.0403 44.8995 18.9549 44.9698C19.9258 45.0472 20.763 44.801 21.3258 43.9286C22.0645 42.7748 22.0364 40.8049 21.2132 39.7074C20.9881 39.4119 20.6574 39.1516 20.3127 39.0039C19.4825 38.6521 17.8785 38.7366 17.2031 39.7567C17.1257 39.8763 16.9569 40.0099 16.8373 40.0029C15.9156 39.9888 14.987 39.9326 13.988 39.8763ZM59.1336 42.7537C60.2592 42.7537 61.3497 42.7537 62.4543 42.7537C62.5387 43.007 62.609 43.2462 62.6935 43.4784C63.2563 44.9628 65.184 45.5045 66.4433 44.5196C66.8795 44.1749 67.2172 43.7527 67.3719 43.1969C67.6463 42.2401 67.6393 41.2974 67.2805 40.3758C66.6192 38.6662 64.1568 38.237 62.9678 39.6441C62.7075 39.9466 62.4754 40.0451 62.1025 40.017C61.3075 39.9537 60.5125 39.9255 59.619 39.8833C60.0482 36.7526 60.4703 33.6711 60.8924 30.5474C64.0653 30.5474 67.2031 30.5474 70.3971 30.5474C70.3971 31.462 70.3971 32.3626 70.3971 33.3264C68.0473 33.3264 65.7046 33.3264 63.2985 33.3264C63.0945 34.5435 62.9045 35.6973 62.6935 36.9496C62.8975 36.8652 63.0382 36.83 63.1578 36.7596C65.1769 35.5988 68.5891 35.8099 70.4253 38.7014C71.0303 39.6511 71.1077 40.7698 71.0936 41.8743C71.0725 43.4573 70.4464 44.794 69.4192 45.9618C68.7227 46.7568 67.8433 47.2493 66.8091 47.4885C65.5146 47.784 64.2201 47.8192 62.9467 47.4533C60.8643 46.8483 59.5205 45.5186 59.1547 43.3236C59.1336 43.1547 59.1406 42.9718 59.1336 42.7537ZM76.7641 44.3296C79.2053 44.3296 81.6466 44.3296 84.1441 44.3296C84.1441 45.3075 84.1441 46.2432 84.1441 47.2282C80.2184 47.2282 76.2998 47.2282 72.3037 47.2282C72.36 46.7427 72.3811 46.2925 72.4585 45.8563C72.7258 44.407 73.3308 43.1125 74.4354 42.1135C75.2445 41.3818 76.1098 40.7064 76.9681 40.024C77.6646 39.4753 78.3963 38.9617 79.0928 38.4129C79.6978 37.9416 80.127 37.3365 80.4365 36.626C80.8797 35.5988 80.7109 34.6561 80.0566 33.8048C79.4094 32.9676 78.4948 32.9465 77.5591 33.1153C76.6726 33.2771 76.1731 33.8681 75.9902 34.7264C75.8917 35.1908 75.8425 35.6692 75.7651 36.1827C74.7098 36.1827 73.6545 36.1827 72.5921 36.1827C72.3881 33.0239 74.1821 30.4067 77.5591 30.2168C78.6214 30.1605 79.6556 30.266 80.6687 30.5967C81.4426 30.85 82.118 31.2721 82.6667 31.8701C83.9964 33.3194 84.4748 35.0289 84.0034 36.9355C83.7713 37.8853 83.2929 38.7788 82.5542 39.4612C81.8858 40.0733 81.1612 40.6361 80.4436 41.1919C79.3601 42.0291 78.2485 42.8311 77.1651 43.6613C76.9752 43.802 76.8415 44.013 76.6797 44.1889C76.7008 44.2382 76.7359 44.2804 76.7641 44.3296ZM89.9061 44.3296C92.3403 44.3296 94.7745 44.3296 97.2509 44.3296C97.2509 45.3075 97.2509 46.2362 97.2509 47.1578C96.7585 47.3056 86.6135 47.3548 85.4738 47.2071C85.509 46.8201 85.509 46.4191 85.5793 46.0322C85.8678 44.5266 86.3884 43.1196 87.6055 42.0994C88.6186 41.2482 89.6669 40.4461 90.701 39.616C91.3624 39.0883 92.0589 38.6099 92.6639 38.019C93.5855 37.1184 94.0006 36.0209 93.6559 34.7194C93.3534 33.5797 92.5584 33.0239 91.3131 33.0591C90.0749 33.0942 89.3784 33.643 89.1251 34.8108C89.0337 35.2541 88.9844 35.7043 88.9141 36.2038C87.8588 36.2038 86.7965 36.2038 85.7412 36.2038C85.5793 32.7706 87.4156 30.4841 90.6307 30.2379C91.7563 30.1535 92.8679 30.259 93.9303 30.6741C95.9424 31.448 97.0047 32.9465 97.2087 35.0712C97.455 37.6179 96.1956 39.3768 94.2328 40.7698C93.0227 41.6281 91.8056 42.4723 90.6096 43.3517C90.3071 43.5769 90.0819 43.9005 89.8216 44.1749C89.8498 44.2171 89.8779 44.2733 89.9061 44.3296ZM125.005 39.7567C125.005 38.9828 125.005 38.2441 125.005 37.4632C125.512 37.4139 125.99 37.3858 126.455 37.3154C127.826 37.1184 128.614 36.0842 128.368 34.7546C128.129 33.453 127.074 32.6932 125.547 33.0098C124.646 33.1927 124.126 33.7837 123.936 34.6701C123.873 34.9797 123.837 35.2963 123.788 35.648C122.761 35.648 121.748 35.648 120.664 35.648C120.749 34.6068 120.833 33.6148 121.424 32.7143C122.135 31.6238 123.014 30.7726 124.309 30.456C125.779 30.0901 127.25 30.1253 128.692 30.5967C130.873 31.3002 132.223 33.5304 131.745 35.6832C131.555 36.5486 131.091 37.2802 130.394 37.8431C130.24 37.9697 130.064 38.0823 129.86 38.23C130.064 38.3566 130.247 38.4551 130.429 38.5747C131.808 39.5175 132.406 40.826 132.364 42.4864C132.301 44.9276 130.345 47.2845 127.7 47.594C126.532 47.7277 125.371 47.7488 124.231 47.4533C122.332 46.9679 121.073 45.793 120.601 43.8583C120.467 43.3095 120.418 42.7467 120.32 42.1205C121.474 42.1205 122.529 42.1205 123.633 42.1205C123.676 42.3527 123.739 42.5989 123.76 42.8381C123.999 45.1739 126.729 45.4131 127.897 44.407C128.818 43.6191 129.135 42.015 128.481 40.9949C128.073 40.3688 127.432 40.0592 126.715 39.9396C126.173 39.8552 125.631 39.82 125.005 39.7567ZM15.993 4.29868C15.993 3.25745 15.993 2.29361 15.993 1.28756C20.7278 1.28756 25.4133 1.28756 30.1551 1.28756C30.1551 2.26547 30.1551 3.23634 30.1551 4.28461C28.4315 4.28461 26.7078 4.28461 24.9068 4.28461C24.9068 9.04752 24.9068 13.733 24.9068 18.4608C23.6474 18.4608 22.4725 18.4608 21.2132 18.4608C21.2132 13.7401 21.2132 9.05455 21.2132 4.29868C19.4263 4.29868 17.7237 4.29868 15.993 4.29868ZM139.118 15.4004C142.066 15.4004 144.887 15.4004 147.757 15.4004C147.757 16.4416 147.757 17.4266 147.757 18.4608C143.677 18.4608 139.604 18.4608 135.495 18.4608C135.495 12.727 135.495 7.03542 135.495 1.30163C136.698 1.30163 137.873 1.30163 139.118 1.30163C139.118 5.97308 139.118 10.6375 139.118 15.4004ZM51.8661 47.2352C50.7053 47.2352 49.5937 47.2352 48.454 47.2352C48.3273 46.4262 48.5032 45.6663 48.6299 44.9136C49.0801 42.212 50.2691 39.8059 51.6199 37.4702C52.3515 36.2038 53.2169 35.0289 54.1807 33.9314C54.2651 33.8329 54.3425 33.7274 54.4973 33.5304C51.6128 33.5304 48.8198 33.5304 45.9353 33.5304C45.9213 32.5173 45.9494 31.5676 45.9564 30.6319C46.4559 30.4771 57.1848 30.4208 58.212 30.5756C58.212 31.3776 58.2331 32.1937 58.1979 33.0028C58.1909 33.1716 57.9939 33.3475 57.8602 33.5023C56.3335 35.2681 54.9968 37.1606 54.0048 39.2923C52.8792 41.6914 52.1264 44.1819 51.9224 46.8272C51.9224 46.9397 51.8942 47.0453 51.8661 47.2352ZM133.56 33.5023C133.56 32.4681 133.56 31.5254 133.56 30.5404C137.648 30.5404 141.672 30.5404 145.795 30.5404C145.795 31.3776 145.816 32.1937 145.781 33.0028C145.774 33.1716 145.584 33.3545 145.443 33.5023C144.191 34.8179 143.248 36.3516 142.298 37.8853C140.828 40.2843 140.103 42.9296 139.618 45.6593C139.526 46.1659 139.505 46.6935 139.449 47.2352C138.288 47.2352 137.176 47.2352 136.03 47.2352C135.896 46.4332 136.072 45.6734 136.205 44.9276C136.55 42.9577 137.19 41.0793 138.133 39.3205C139.097 37.5335 140.145 35.7958 141.447 34.2199C141.616 34.0159 141.806 33.8189 142.094 33.5093C141.067 33.4952 140.145 33.5023 139.224 33.5023C138.288 33.5023 137.352 33.5023 136.417 33.5023C135.474 33.5023 134.545 33.5023 133.56 33.5023ZM171.875 30.3364C172.782 30.3364 173.662 30.3364 174.59 30.3364C174.59 35.9717 174.59 41.5718 174.59 47.2282C173.479 47.2282 172.374 47.2282 171.164 47.2282C171.157 46.2503 171.15 45.2794 171.15 44.3085C171.15 43.3517 171.15 42.3949 171.15 41.4311C171.15 40.4532 171.15 39.4682 171.15 38.4903C171.15 37.5335 171.15 36.5837 171.15 35.5777C169.778 35.5777 168.484 35.5777 167.14 35.5777C167.14 34.8108 167.14 34.0932 167.14 33.3123C167.407 33.2912 167.674 33.2631 167.942 33.2349C168.308 33.1998 168.666 33.1716 169.032 33.1224C170.482 32.9254 171.396 32.1374 171.734 30.7022C171.755 30.6108 171.776 30.5263 171.797 30.4349C171.804 30.4138 171.825 30.3997 171.875 30.3364ZM189.428 18.4186C189.428 12.734 189.428 7.04949 189.428 1.25942C190.631 1.24535 191.827 1.24535 193.065 1.25942C193.065 7.01431 193.065 12.7059 193.065 18.3904C192.565 18.5311 190.166 18.5522 189.428 18.4186ZM50.5505 18.4608C49.4037 18.4608 48.25 18.4608 47.0469 18.4608C47.0469 12.734 47.0469 7.04245 47.0469 1.2946C48.2148 1.2946 49.3686 1.2946 50.5224 1.2946C50.656 1.75893 50.6912 17.6658 50.5505 18.4608ZM108.599 51.2453C108.599 50.8725 108.599 50.4855 108.599 50.0423C109.907 49.6554 110.527 48.7337 110.548 47.2774C109.886 47.2774 109.26 47.2774 108.606 47.2774C108.606 46.0814 108.606 44.9698 108.606 43.8161C109.802 43.8161 110.977 43.8161 112.201 43.8161C112.215 43.9919 112.257 44.1678 112.25 44.3437C112.229 45.4623 112.236 46.5809 112.159 47.6925C112.018 49.8031 110.484 50.8654 108.761 51.2876C108.718 51.2946 108.676 51.2665 108.599 51.2453ZM147.56 43.7949C148.778 43.7949 149.91 43.7949 151.148 43.7949C151.17 44.9347 151.163 46.0533 151.156 47.2282C149.917 47.2282 148.757 47.2282 147.56 47.2282C147.56 46.0674 147.56 44.9628 147.56 43.7949ZM44.1343 47.2352C42.9524 47.2352 41.8267 47.2352 40.6307 47.2352C40.6307 46.0955 40.6307 44.9698 40.6307 43.809C41.7915 43.809 42.9383 43.809 44.1343 43.809C44.1343 44.9417 44.1343 46.0462 44.1343 47.2352Z" fill="black"/>
</svg>
