<svg width="130" height="50" viewBox="0 0 130 50" fill="none" xmlns="http://www.w3.org/2000/svg">
<g clip-path="url(#clip0_167_2311)">
<path d="M24.7642 24.1899C16.7195 24.1899 8.61891 24.1899 0.574219 24.1899C0.574219 16.1453 0.574219 8.04469 0.574219 0C2.58539 2.01117 4.59657 4.02235 6.60774 6.03352C6.60774 10.0559 6.60774 14.0782 6.60774 18.1564C10.6301 18.1564 14.6524 18.1564 18.7306 18.1564C18.7306 14.1341 18.7306 10.1117 18.7306 6.03352C20.7418 4.02235 22.753 2.01117 24.7642 0C24.7642 8.04469 24.7642 16.1453 24.7642 24.1899Z" fill="black"/>
<path d="M50.9095 24.1899C49.457 24.1899 48.0603 24.1899 46.6078 24.1899C42.0268 19.5531 37.3899 14.9721 32.8089 10.3352C32.8089 12.9609 32.8089 15.5307 32.8089 18.1564C30.7977 20.1676 28.7866 22.1788 26.7754 24.1899C26.7754 16.1453 26.7754 8.04469 26.7754 0C28.2279 0 29.6246 0 31.0771 0C35.6581 4.63687 40.2391 9.27374 44.8759 13.8547C44.8759 11.229 44.8759 8.65922 44.8759 6.03352C46.8871 4.02235 48.8983 2.01117 50.9095 0C50.9095 8.04469 50.9095 16.1453 50.9095 24.1899Z" fill="black"/>
<path d="M77.1106 12.1232C77.1106 16.1455 77.1106 20.1679 77.1106 24.2461C69.0659 24.2461 60.9653 24.2461 52.9207 24.2461C52.9207 16.2014 52.9207 8.10084 52.9207 0.0561523C56.943 0.0561523 60.9653 0.0561523 65.0436 0.0561523C69.01 4.02263 73.0883 8.04498 77.1106 12.1232ZM58.9542 6.03381C58.9542 10.0562 58.9542 14.0785 58.9542 18.1567C62.9765 18.1567 66.9989 18.1567 71.0771 18.1567C71.0771 16.9835 71.0771 15.8103 71.0771 14.6372C68.2279 11.788 65.3788 8.93883 62.5296 6.08967C61.3005 6.03381 60.1274 6.03381 58.9542 6.03381Z" fill="black"/>
<path d="M103.256 0.000201859C103.256 2.40244 103.256 4.80467 103.256 7.15104C103.256 7.76556 103.256 8.43596 103.256 9.05048C101.244 11.0617 99.2333 13.0728 97.2221 15.084C93.1998 15.084 89.1774 15.084 85.1551 15.084C85.1551 16.0896 85.1551 17.0952 85.1551 18.1008C89.1774 18.1008 93.1998 18.1008 97.278 18.1008C99.2892 20.1119 101.3 22.1231 103.312 24.1343C95.2668 24.1343 87.1663 24.1343 79.1216 24.1343C79.1216 16.0896 79.1216 7.98903 79.1216 -0.0556641C87.1104 0.000201859 95.211 0.000201859 103.256 0.000201859ZM85.0992 9.05048C89.1216 9.05048 93.1439 9.05048 97.2221 9.05048C97.2221 8.0449 97.2221 7.03931 97.2221 6.03372C93.1998 6.03372 89.1774 6.03372 85.0992 6.03372C85.0992 7.03931 85.0992 8.0449 85.0992 9.05048Z" fill="black"/>
<path d="M129.401 0C129.401 5.02793 129.401 10.0559 129.401 15.1397C127.781 15.1397 126.217 15.1397 124.597 15.1397C126.217 16.7598 127.781 18.324 129.401 19.9441C129.401 21.3967 129.401 22.7933 129.401 24.2458C127.949 24.2458 126.552 24.2458 125.099 24.2458C122.083 21.2291 119.066 18.2123 116.049 15.1955C114.429 15.1955 112.865 15.1955 111.245 15.1955C111.245 16.2011 111.245 17.2067 111.245 18.2123C109.234 20.2235 107.222 22.2346 105.211 24.2458C105.211 16.2011 105.211 8.10056 105.211 0.0558659C113.312 0 121.356 0 129.401 0ZM111.245 9.05028C115.267 9.05028 119.289 9.05028 123.368 9.05028C123.368 8.04469 123.368 7.03911 123.368 6.03352C119.345 6.03352 115.323 6.03352 111.245 6.03352C111.245 7.03911 111.245 8.04469 111.245 9.05028Z" fill="black"/>
<path d="M37.8367 25.8101C37.8367 33.8548 37.8367 41.9553 37.8367 50C35.8255 47.9888 33.8144 45.9777 31.8032 43.9665C31.8032 41.3408 31.8032 38.7709 31.8032 36.1453C29.792 38.1564 27.7808 40.1676 25.7697 42.1788C23.7585 40.1676 21.7473 38.1564 19.7362 36.1453C19.7362 38.7709 19.7362 41.3408 19.7362 43.9665C17.725 45.9777 15.7138 47.9888 13.7026 50C13.7026 41.9553 13.7026 33.8548 13.7026 25.8101C14.9317 25.8101 16.1607 25.8101 17.3898 25.8101C17.6133 25.8101 17.8367 25.8101 18.0043 25.8101C20.63 28.4358 23.1998 31.0056 25.8255 33.6313C28.3954 31.0615 31.0211 28.4358 33.5909 25.8659C33.6468 25.8101 33.7026 25.8101 33.7585 25.8101C35.0993 25.8101 36.4401 25.8101 37.8367 25.8101Z" fill="black"/>
<path d="M64.0378 25.8101C62.0267 27.8212 60.0155 29.8324 58.0043 31.8436C56.9987 31.8436 55.9932 31.8436 54.9876 31.8436C54.9876 35.8659 54.9876 39.8883 54.9876 43.9665C55.9932 43.9665 56.9987 43.9665 58.0043 43.9665C60.0155 45.9777 62.0267 47.9888 64.0378 50C55.9931 50 47.8926 50 39.8479 50C41.8591 47.9888 43.8702 45.9777 45.8814 43.9665C46.887 43.9665 47.8926 43.9665 48.8982 43.9665C48.8982 39.9441 48.8982 35.9218 48.8982 31.8436C47.8926 31.8436 46.887 31.8436 45.8814 31.8436C43.8702 29.8324 41.8591 27.8212 39.8479 25.8101C47.8926 25.8101 55.9373 25.8101 64.0378 25.8101Z" fill="black"/>
<path d="M90.1831 50C88.7306 50 87.3339 50 85.8814 50C81.2446 45.3631 76.6077 40.7263 72.0267 36.1453C72.0267 38.7709 72.0267 41.3408 72.0267 43.9665C70.0155 45.9777 68.0043 47.9888 65.9932 50C65.9932 41.9553 65.9932 33.8548 65.9932 25.8101C67.4457 25.8101 68.8423 25.8101 70.2948 25.8101C74.9317 30.4469 79.5686 35.0838 84.1496 39.6648C84.1496 37.0391 84.1496 34.4693 84.1496 31.8436C86.1608 29.8324 88.1719 27.8212 90.1831 25.8101C90.1831 33.8548 90.1831 41.8994 90.1831 50Z" fill="black"/>
<path d="M116.328 37.8771C116.328 41.8994 116.328 45.9218 116.328 50C108.284 50 100.183 50 92.1384 50C92.1384 41.9553 92.1384 33.8548 92.1384 25.8101C96.1608 25.8101 100.183 25.8101 104.261 25.8101C108.284 29.8324 112.306 33.8548 116.328 37.8771ZM98.1719 31.8436C98.1719 35.8659 98.1719 39.8883 98.1719 43.9665C102.194 43.9665 106.217 43.9665 110.295 43.9665C110.295 42.7933 110.295 41.6201 110.295 40.4469C107.446 37.5978 104.597 34.7486 101.747 31.8994C100.574 31.8436 99.3451 31.8436 98.1719 31.8436Z" fill="black"/>
</g>
<defs>
<clipPath id="clip0_167_2311">
<rect width="128.827" height="50" fill="white" transform="translate(0.574219)"/>
</clipPath>
</defs>
</svg>
